<svg xmlns="http://www.w3.org/2000/svg" version="1.1" xmlns:xlink="http://www.w3.org/1999/xlink" xmlns:svgjs="http://svgjs.com/svgjs" width="512" height="512" x="0" y="0" viewBox="0 0 24 24" style="enable-background:new 0 0 512 512" xml:space="preserve" class=""><g><g fill="#000" fill-rule="evenodd" clip-rule="evenodd"><path d="M4.5 3.75a.75.75 0 0 0-.75.75v15c0 .414.336.75.75.75h15a.75.75 0 0 0 .75-.75V10a.75.75 0 0 1 1.5 0v9.5a2.25 2.25 0 0 1-2.25 2.25h-15a2.25 2.25 0 0 1-2.25-2.25v-15A2.25 2.25 0 0 1 4.5 2.25H15a.75.75 0 0 1 0 1.5z" fill="#ffffff" data-original="#000000" class=""></path><path d="M20.936 2.89a.75.75 0 0 1 .174 1.046l-7.5 10.5a.75.75 0 0 1-1.079.15l-5-4a.75.75 0 0 1 .938-1.172l4.381 3.506 7.04-9.856a.75.75 0 0 1 1.046-.174z" fill="#ffffff" data-original="#000000" class=""></path></g></g></svg>