<svg xmlns="http://www.w3.org/2000/svg" version="1.1" xmlns:xlink="http://www.w3.org/1999/xlink" xmlns:svgjs="http://svgjs.com/svgjs" width="512" height="512" x="0" y="0" viewBox="0 0 682.667 682.667" style="enable-background:new 0 0 512 512" xml:space="preserve"><g><defs><clipPath id="a" clipPathUnits="userSpaceOnUse"><path d="M0 512h512V0H0Z" fill="#00ff36" data-original="#000000"></path></clipPath></defs><g clip-path="url(#a)" transform="matrix(1.33333 0 0 -1.33333 0 682.667)"><path d="M0 0a32.11 32.11 0 0 1-9.415 22.722 32.122 32.122 0 0 1-22.719 9.411h-417.732a32.122 32.122 0 0 1-22.719-9.411A32.11 32.11 0 0 1-482 0v-224.934a32.106 32.106 0 0 1 9.415-22.721 32.118 32.118 0 0 1 22.719-9.411h417.732a32.118 32.118 0 0 1 22.719 9.411A32.106 32.106 0 0 1 0-224.934z" style="stroke-width:30;stroke-linecap:round;stroke-linejoin:round;stroke-miterlimit:10;stroke-dasharray:none;stroke-opacity:1" transform="translate(497 368.467)" fill="none" stroke="#00ff36" stroke-width="30" stroke-linecap="round" stroke-linejoin="round" stroke-miterlimit="10" stroke-dasharray="none" stroke-opacity="" data-original="#000000"></path><path d="M0 0v68.3a32.112 32.112 0 0 0 9.407 22.71 32.126 32.126 0 0 0 22.71 9.407h.016c17.746 0 32.134-14.387 32.134-32.134V0" style="stroke-width:30;stroke-linecap:round;stroke-linejoin:round;stroke-miterlimit:10;stroke-dasharray:none;stroke-opacity:1" transform="translate(63.2 207.8)" fill="none" stroke="#00ff36" stroke-width="30" stroke-linecap="round" stroke-linejoin="round" stroke-miterlimit="10" stroke-dasharray="none" stroke-opacity="" data-original="#000000"></path><path d="M0 0v-68.3a32.112 32.112 0 0 1 9.407-22.71 32.126 32.126 0 0 1 22.71-9.407h.016c17.746 0 32.134 14.387 32.134 32.134V0" style="stroke-width:30;stroke-linecap:round;stroke-linejoin:round;stroke-miterlimit:10;stroke-dasharray:none;stroke-opacity:1" transform="translate(175.667 304.2)" fill="none" stroke="#00ff36" stroke-width="30" stroke-linecap="round" stroke-linejoin="round" stroke-miterlimit="10" stroke-dasharray="none" stroke-opacity="" data-original="#000000"></path><path d="M0 0a32.116 32.116 0 0 1-32.117-32.117v-40.199A32.12 32.12 0 0 1 0-104.434h.017a32.117 32.117 0 0 1 22.717 9.413A32.1 32.1 0 0 1 32.149-72.3v40.166a32.103 32.103 0 0 1-9.415 22.722A32.12 32.12 0 0 1 .017 0Z" style="stroke-width:30;stroke-linecap:round;stroke-linejoin:round;stroke-miterlimit:10;stroke-dasharray:none;stroke-opacity:1" transform="translate(416.65 308.217)" fill="none" stroke="#00ff36" stroke-width="30" stroke-linecap="round" stroke-linejoin="round" stroke-miterlimit="10" stroke-dasharray="none" stroke-opacity="" data-original="#000000"></path><path d="M0 0h64.267" style="stroke-width:30;stroke-linecap:round;stroke-linejoin:round;stroke-miterlimit:10;stroke-dasharray:none;stroke-opacity:1" transform="translate(280.1 304.2)" fill="none" stroke="#00ff36" stroke-width="30" stroke-linecap="round" stroke-linejoin="round" stroke-miterlimit="10" stroke-dasharray="none" stroke-opacity="" data-original="#000000"></path><path d="M0 0v-96.4" style="stroke-width:30;stroke-linecap:round;stroke-linejoin:round;stroke-miterlimit:10;stroke-dasharray:none;stroke-opacity:1" transform="translate(312.233 304.2)" fill="none" stroke="#00ff36" stroke-width="30" stroke-linecap="round" stroke-linejoin="round" stroke-miterlimit="10" stroke-dasharray="none" stroke-opacity="" data-original="#000000"></path><path d="M0 0h64.267" style="stroke-width:30;stroke-linecap:round;stroke-linejoin:round;stroke-miterlimit:10;stroke-dasharray:none;stroke-opacity:1" transform="translate(63.2 239.934)" fill="none" stroke="#00ff36" stroke-width="30" stroke-linecap="round" stroke-linejoin="round" stroke-miterlimit="10" stroke-dasharray="none" stroke-opacity="" data-original="#000000"></path></g></g></svg>