<svg xmlns="http://www.w3.org/2000/svg" version="1.1" xmlns:xlink="http://www.w3.org/1999/xlink" xmlns:svgjs="http://svgjs.com/svgjs" width="512" height="512" x="0" y="0" viewBox="0 0 60 60" style="enable-background:new 0 0 512 512" xml:space="preserve" class=""><g><path d="M49.69 14.57c-.14-.53-.69-.85-1.22-.71l-5.1 1.34c-.26.07-.48.23-.61.46s-.17.5-.1.76l.15.58-3.05.12c-.72.03-1.46-.06-2.2-.25-3.75-.98-6.89-1.47-9.6-1.52-.97-.01-1.89.18-2.76.51-.03.01-.05 0-.08.01l-3.32 1.01c-1.04.32-2.12.45-3.2.38l-1.38-.09.19-.72a1.007 1.007 0 0 0-.71-1.23l-5.09-1.36a1.007 1.007 0 0 0-1.23.71L6.03 30.84c-.14.53.17 1.08.71 1.22l5.09 1.36c.08.02.17.03.26.03.17 0 .35-.05.5-.13.2-.12.34-.31.42-.53l.18.07c.57.23 1.08.53 1.57.85-.21.45-.33.94-.3 1.44.04.8.39 1.54.99 2.07.37.33.79.54 1.24.66-.07.29-.11.58-.1.88.04.8.39 1.54.99 2.07.56.5 1.26.77 2 .77h.16c.17-.01.33-.04.49-.07.16.53.45 1 .86 1.38.56.5 1.26.77 2 .77h.16c.02 0 .04-.01.06-.01.12.62.42 1.19.9 1.62l.16.15c.54.48 1.21.74 1.93.74h.16c.77-.04 1.48-.38 2-.95l.36-.4c.09-.1.15-.2.22-.31l.92.86c.53.5 1.21.75 1.89.75.7 0 1.4-.27 1.94-.8.35-.34.59-.76.72-1.22.91.14 1.85-.14 2.57-.83.46-.44.76-1 .88-1.62.17.02.35.04.53.03.89-.02 1.71-.38 2.32-1.03.46-.49.76-1.1.86-1.75a3.265 3.265 0 0 0 3.06-1.1c.57-.67.84-1.53.76-2.41-.04-.45-.17-.87-.38-1.25l1.88-1.34a.981.981 0 0 0 1.17.61l5.1-1.34c.26-.07.48-.23.61-.46s.17-.5.1-.76zM37.06 18.8c.93.24 1.87.35 2.78.31l3.49-.14 3.09 11.79-2.72 1.93-12-9.84a4.475 4.475 0 0 0-5.33-.24l-3.65 2.48c-.67.46-1.56.39-2.16-.16-.26-.24-.33-.63-.19-.97.96-2.32 2.44-4.22 4.41-5.65.88-.64 1.99-.99 3.14-.96 2.55.04 5.54.52 9.14 1.45zM8.22 30.39l3.84-14.34 3.16.85-3.84 14.34zm8.5 3.94.19-.21h.01l.49-.54a.996.996 0 0 1 1.41-.07c.2.18.32.42.33.69s-.08.52-.25.72l-.68.76c-.37.41-1 .44-1.41.08-.2-.18-.32-.42-.33-.69s.06-.54.24-.74zm2.93 5.28a.994.994 0 0 1-1.05-.94c-.01-.27.08-.52.25-.72l1.96-2.18c.18-.2.42-.32.69-.33h.05c.25 0 .48.09.67.26.2.18.32.42.33.69s-.08.52-.25.72l-.3.32-.01.01-1.11 1.24s0 .01-.01.01l-.53.59c-.18.2-.43.32-.69.33zm3.51 2.07a.994.994 0 0 1-1.05-.94c-.01-.26.08-.52.25-.72l1.12-1.25a.996.996 0 0 1 1.41-.07c.2.18.32.42.33.69s-.08.52-.25.72l-1.11 1.24c-.19.2-.43.32-.7.33zm4.18 1.8-.36.4c-.16.18-.38.28-.61.29a.874.874 0 0 1-.64-.23l-.16-.15a.863.863 0 0 1-.29-.61c-.01-.24.07-.47.23-.64l.36-.4c.18-.2.42-.29.66-.29.21 0 .42.08.59.23l.16.15c.36.32.39.89.06 1.25zm15.85-6.96c-.22.26-.53.42-.87.44s-.67-.08-.92-.3l-.84-.72-5.27-4.55c-.42-.36-1.05-.31-1.41.1-.36.42-.31 1.05.1 1.41l5.27 4.55c.26.23.42.55.44.9s-.1.69-.35.94c-.24.25-.56.39-.9.4-.34.02-.67-.12-.92-.36l-4.62-4.51a.987.987 0 0 0-1.41.02c-.39.4-.38 1.03.02 1.41l4.18 4.08c.2.2.32.47.32.75 0 .29-.11.55-.32.75-.41.4-1.05.4-1.46 0l-.42-.41a.138.138 0 0 0-.04-.03l-3.54-3.44c-.4-.39-1.03-.38-1.41.02s-.38 1.03.02 1.41l3.56 3.46a.76.76 0 0 1-.01 1.06c-.29.29-.75.29-1.05.01l-1.86-1.73c-.14-.55-.44-1.05-.87-1.44l-.16-.15c-.37-.34-.82-.54-1.27-.65.04-.21.05-.43.04-.66a2.94 2.94 0 0 0-.99-2.07c-.49-.44-1.08-.68-1.69-.74 0-.07.01-.13.01-.2a2.94 2.94 0 0 0-.99-2.07c-.6-.54-1.36-.81-2.17-.76-.12.01-.23.03-.34.05-.15-.57-.45-1.08-.9-1.48-1.2-1.08-3.03-1-4.15.14-.63-.43-1.3-.83-2.07-1.14l-.38-.15 3.14-11.73 1.78.11c.23.01.46.02.69.02.61 0 1.23-.06 1.83-.16-1.02 1.2-1.85 2.56-2.48 4.08-.46 1.11-.18 2.4.69 3.2a3.737 3.737 0 0 0 4.64.35l3.65-2.48c.9-.61 2.11-.55 2.94.13l12.59 10.33c.26.22.43.52.46.86s-.07.69-.29.95zm5.43-5.28-3.77-14.36 3.16-.83 3.77 14.36z" fill="#ffffff" data-original="#000000"></path></g></svg>