<svg xmlns="http://www.w3.org/2000/svg" version="1.1" xmlns:xlink="http://www.w3.org/1999/xlink" xmlns:svgjs="http://svgjs.com/svgjs" width="512" height="512" x="0" y="0" viewBox="0 0 682.667 682.667" style="enable-background:new 0 0 512 512" xml:space="preserve" class=""><g><defs><clipPath id="a" clipPathUnits="userSpaceOnUse"><path d="M0 512h512V0H0Z" fill="#ffffff" data-original="#000000"></path></clipPath></defs><g clip-path="url(#a)" transform="matrix(1.33333 0 0 -1.33333 0 682.667)"><path d="m0 0 51.281 129.987a7.812 7.812 0 0 0 10.135 4.401l40.805-16.098a7.812 7.812 0 0 0 4.401-10.135L55.341-21.833a7.812 7.812 0 0 0-10.135-4.4L4.401-10.136A7.815 7.815 0 0 0 0 0Z" style="stroke-width:15;stroke-linecap:round;stroke-linejoin:round;stroke-miterlimit:10;stroke-dasharray:none;stroke-opacity:1" transform="translate(8.047 271.67)" fill="none" stroke="#ffffff" stroke-width="15" stroke-linecap="round" stroke-linejoin="round" stroke-miterlimit="10" stroke-dasharray="none" stroke-opacity="" data-original="#000000"></path><path d="m0 0-26.695 20.569" style="stroke-width:15;stroke-linecap:round;stroke-linejoin:round;stroke-miterlimit:10;stroke-dasharray:none;stroke-opacity:1" transform="translate(367.418 198.96)" fill="none" stroke="#ffffff" stroke-width="15" stroke-linecap="round" stroke-linejoin="round" stroke-miterlimit="10" stroke-dasharray="none" stroke-opacity="" data-original="#000000"></path><path d="m0 0-23.732 18.271" style="stroke-width:15;stroke-linecap:round;stroke-linejoin:round;stroke-miterlimit:10;stroke-dasharray:none;stroke-opacity:1" transform="translate(331.697 170.217)" fill="none" stroke="#ffffff" stroke-width="15" stroke-linecap="round" stroke-linejoin="round" stroke-miterlimit="10" stroke-dasharray="none" stroke-opacity="" data-original="#000000"></path><path d="m0 0-16.913 13.089" style="stroke-width:15;stroke-linecap:round;stroke-linejoin:round;stroke-miterlimit:10;stroke-dasharray:none;stroke-opacity:1" transform="translate(292.435 144.04)" fill="none" stroke="#ffffff" stroke-width="15" stroke-linecap="round" stroke-linejoin="round" stroke-miterlimit="10" stroke-dasharray="none" stroke-opacity="" data-original="#000000"></path><path d="M0 0v0c-8.352 7.082-9.382 19.593-2.3 27.945l18.539 21.761c7.082 8.352 19.594 9.382 27.945 2.3 8.352-7.081 9.382-19.592 2.3-27.944L27.945 2.3C20.863-6.052 8.352-7.082 0 0Z" style="stroke-width:15;stroke-linecap:round;stroke-linejoin:round;stroke-miterlimit:10;stroke-dasharray:none;stroke-opacity:1" transform="translate(114.144 187.034)" fill="none" stroke="#ffffff" stroke-width="15" stroke-linecap="round" stroke-linejoin="round" stroke-miterlimit="10" stroke-dasharray="none" stroke-opacity="" data-original="#000000"></path><path d="M0 0v0c-8.352 7.082-9.381 19.593-2.3 27.945l18.54 21.761c7.081 8.352 19.593 9.382 27.945 2.3 8.352-7.081 9.381-19.593 2.3-27.944L27.945 2.3C20.863-6.052 8.352-7.082 0 0Z" style="stroke-width:15;stroke-linecap:round;stroke-linejoin:round;stroke-miterlimit:10;stroke-dasharray:none;stroke-opacity:1" transform="translate(144.388 161.39)" fill="none" stroke="#ffffff" stroke-width="15" stroke-linecap="round" stroke-linejoin="round" stroke-miterlimit="10" stroke-dasharray="none" stroke-opacity="" data-original="#000000"></path><path d="M0 0v0c-8.352 7.082-9.382 19.593-2.3 27.945l18.54 21.762c7.081 8.351 19.593 9.381 27.945 2.299 8.351-7.081 9.381-19.592 2.299-27.944L27.945 2.3C20.863-6.052 8.352-7.082 0 0Z" style="stroke-width:15;stroke-linecap:round;stroke-linejoin:round;stroke-miterlimit:10;stroke-dasharray:none;stroke-opacity:1" transform="translate(174.633 135.744)" fill="none" stroke="#ffffff" stroke-width="15" stroke-linecap="round" stroke-linejoin="round" stroke-miterlimit="10" stroke-dasharray="none" stroke-opacity="" data-original="#000000"></path><path d="M0 0v0c-8.352 7.082-9.382 19.593-2.3 27.945l18.539 21.761c7.082 8.352 19.594 9.382 27.945 2.3 8.352-7.081 9.382-19.592 2.3-27.944L27.945 2.3C20.863-6.052 8.352-7.082 0 0Z" style="stroke-width:15;stroke-linecap:round;stroke-linejoin:round;stroke-miterlimit:10;stroke-dasharray:none;stroke-opacity:1" transform="translate(204.878 110.1)" fill="none" stroke="#ffffff" stroke-width="15" stroke-linecap="round" stroke-linejoin="round" stroke-miterlimit="10" stroke-dasharray="none" stroke-opacity="" data-original="#000000"></path><path d="m0 0-9.972 7.359-46.9 34.613-5.374 3.778c-44.276-7.521-73.959 16.739-86.042 29.356-3.554 3.712-9.42 3.853-13.243.419-41.517-37.287-65.559-27.73-77.232-16.638-5.613 5.333-4.647 14.526 1.87 18.709 22.315 14.323 43.153 32.452 58.042 46.581l-2.651.993a99.661 99.661 0 0 1-29.378 6.18l-27.457 1.542c-3.596.202-7.203.247-10.797.016a42.221 42.221 0 0 0-19.008 3.186l-19.879 8.318-48.754-123.581 38.543-24.308 12.198-8.574 15.735 18.468c7.081 8.353 19.592 9.382 27.944 2.301 8.352-7.082 9.382-19.593 2.3-27.945 7.082 8.352 19.593 9.382 27.945 2.3s9.382-19.593 2.3-27.945c7.082 8.352 19.593 9.382 27.945 2.3 8.352-7.081 9.382-19.593 2.3-27.944 7.082 8.351 19.593 9.381 27.945 2.3 8.352-7.082 9.382-19.594 2.3-27.945l-7.52-8.827 16.553-12.217c9.193-6.784 22.148-6.005 30.041 2.254 7.683 8.038 8.141 20.138 1.999 28.668l8.3-6.125c9.466-6.986 22.873-5.914 30.653 2.909 7.537 8.547 7.346 21.087.308 29.394l4.663-3.44c9.026-6.661 21.712-6.057 29.653 1.866 8.442 8.423 8.666 21.619 1.406 30.317l7-5.167c9.786-7.221 23.566-5.367 31.086 4.255C12.673-22.228 10.259-7.571 0 0Z" style="stroke-width:15;stroke-linecap:round;stroke-linejoin:round;stroke-miterlimit:10;stroke-dasharray:none;stroke-opacity:1" transform="translate(400.683 230.322)" fill="none" stroke="#ffffff" stroke-width="15" stroke-linecap="round" stroke-linejoin="round" stroke-miterlimit="10" stroke-dasharray="none" stroke-opacity="" data-original="#000000"></path><path d="m0 0-28.468 4.512c-9.631 1.527-19.418-1.662-26.273-8.596-14.126-14.29-40.784-39.524-69.954-58.247-6.517-4.183-7.484-13.375-1.87-18.709 11.672-11.091 35.714-20.648 77.232 16.639 3.823 3.434 9.688 3.293 13.243-.419 12.103-12.638 41.859-36.96 86.253-29.325l66.746-49.259 41.717 26.796L110.987 4.148 82.032-6.541a50.011 50.011 0 0 0-25.141-2.477L34.778-5.513" style="stroke-width:15;stroke-linecap:round;stroke-linejoin:round;stroke-miterlimit:10;stroke-dasharray:none;stroke-opacity:1" transform="translate(288.485 370.25)" fill="none" stroke="#ffffff" stroke-width="15" stroke-linecap="round" stroke-linejoin="round" stroke-miterlimit="10" stroke-dasharray="none" stroke-opacity="" data-original="#000000"></path><path d="m0 0-19.771 50.114a7.814 7.814 0 0 1-10.135 4.401l-40.805-16.098a7.814 7.814 0 0 1-4.401-10.135l51.281-129.988a7.814 7.814 0 0 1 10.135-4.401l40.805 16.098a7.812 7.812 0 0 1 4.401 10.135L12.86-32.599" style="stroke-width:15;stroke-linecap:round;stroke-linejoin:round;stroke-miterlimit:10;stroke-dasharray:none;stroke-opacity:1" transform="translate(472.442 351.543)" fill="none" stroke="#ffffff" stroke-width="15" stroke-linecap="round" stroke-linejoin="round" stroke-miterlimit="10" stroke-dasharray="none" stroke-opacity="" data-original="#000000"></path></g></g></svg>