<svg xmlns="http://www.w3.org/2000/svg" version="1.1" xmlns:xlink="http://www.w3.org/1999/xlink" xmlns:svgjs="http://svgjs.com/svgjs" width="512" height="512" x="0" y="0" viewBox="0 0 511.453 511.453" style="enable-background:new 0 0 512 512" xml:space="preserve" class=""><g><path d="m321.603 109.676 41.094-41.094L490.24 196.125l-40.019 40.019a55.238 55.238 0 0 1-15.106 49.891l-40.851 40.851" style="stroke-width:30;stroke-miterlimit:10;" fill="none" stroke="#ffffff" stroke-width="30" stroke-miterlimit="10" data-original="#000000" class=""></path><path d="M246.52 107.603c-33.944-33.944-70.912-12.142-70.912-12.142L148.757 68.61 21.213 196.152l41.458 41.458a55.238 55.238 0 0 0 15.106 49.891l46.882 46.882.063-.036c8.272 8.328 102.408 102.507 105.033 105.132 12.807 12.807 33.572 12.807 46.379 0 12.807-12.807 12.807-33.572 0-46.38 0 0 8.49 8.426 10.896 10.832 12.807 12.807 33.572 12.807 46.379 0 12.575-12.575 12.794-32.815.676-45.668 2.932 2.947 5.693 4.794 9.228 8.329 12.656 12.656 33.083 12.805 45.923.448 13.249-12.752 13.001-34.282-.001-47.285L254.434 185.882M336.67 360.848l-75.28-75.28M279.891 396.856l-69.97-69.97" style="stroke-width:30;stroke-miterlimit:10;" fill="none" stroke="#ffffff" stroke-width="30" stroke-miterlimit="10" data-original="#000000" class=""></path><path d="m352.845 134.228-22.8-21.724c-25.441-24.242-65.577-23.757-90.426 1.092l-60.664 60.664c-12.026 12.026-12.026 31.525 0 43.551 12.026 12.026 31.525 12.026 43.551 0l55.464-55.464" style="stroke-width:30;stroke-miterlimit:10;" fill="none" stroke="#ffffff" stroke-width="30" stroke-miterlimit="10" data-original="#000000" class=""></path></g></svg>