<svg xmlns="http://www.w3.org/2000/svg" version="1.1" xmlns:xlink="http://www.w3.org/1999/xlink" xmlns:svgjs="http://svgjs.com/svgjs" width="512" height="512" x="0" y="0" viewBox="0 0 512 512" style="enable-background:new 0 0 512 512" xml:space="preserve" class=""><g><path d="M141.255 228H34.745C15.586 228 0 212.414 0 193.255V86.745C0 67.586 15.586 52 34.745 52h106.51C160.414 52 176 67.586 176 86.745v106.51C176 212.414 160.414 228 141.255 228zM34.745 84A2.748 2.748 0 0 0 32 86.745v106.51A2.748 2.748 0 0 0 34.745 196h106.51a2.748 2.748 0 0 0 2.745-2.745V86.745A2.748 2.748 0 0 0 141.255 84zM141.255 460H34.745C15.586 460 0 444.414 0 425.255v-106.51C0 299.586 15.586 284 34.745 284h106.51C160.414 284 176 299.586 176 318.745v106.51C176 444.414 160.414 460 141.255 460zM34.745 316A2.748 2.748 0 0 0 32 318.745v106.51A2.748 2.748 0 0 0 34.745 428h106.51a2.748 2.748 0 0 0 2.745-2.745v-106.51a2.748 2.748 0 0 0-2.745-2.745zM496 132H240c-8.836 0-16-7.164-16-16s7.164-16 16-16h256c8.836 0 16 7.164 16 16s-7.164 16-16 16zM408 192H240c-8.836 0-16-7.164-16-16s7.164-16 16-16h168c8.836 0 16 7.164 16 16s-7.164 16-16 16zM496 360H240c-8.836 0-16-7.164-16-16s7.164-16 16-16h256c8.836 0 16 7.164 16 16s-7.164 16-16 16zM408 424H240c-8.836 0-16-7.164-16-16s7.164-16 16-16h168c8.836 0 16 7.164 16 16s-7.164 16-16 16z" fill="#ffffff" data-original="#000000" class=""></path></g></svg>