<svg xmlns="http://www.w3.org/2000/svg" version="1.1" xmlns:xlink="http://www.w3.org/1999/xlink" xmlns:svgjs="http://svgjs.com/svgjs" width="512" height="512" x="0" y="0" viewBox="0 0 512 512" style="enable-background:new 0 0 512 512" xml:space="preserve" class=""><g><circle cx="227.05" cy="92.108" r="10" transform="rotate(-86.27 227.122 92.058)" fill="#ffffff" data-original="#000000" class=""></circle><circle cx="456.863" cy="223.722" r="10" transform="rotate(-47.39 456.715 223.708)" fill="#ffffff" data-original="#000000" class=""></circle><path d="M54.681 213.063c-5.518.229-9.806 4.888-9.576 10.406.229 5.518 4.888 9.806 10.406 9.577s9.806-4.888 9.576-10.406c-.229-5.519-4.888-9.806-10.406-9.577z" fill="#ffffff" data-original="#000000" class=""></path><path d="M510.994 229.984 441.425 86.483c-2.414-4.979-8.408-7.059-13.387-4.645l-64.712 31.372a10.02 10.02 0 0 0-5.095 5.731 10.017 10.017 0 0 0-.473 2.064h-52.756l-29.453-22.384c-4.406-3.348-10.691-2.491-14.04 1.915-3.348 4.406-2.491 10.692 1.915 14.04l63.656 48.376c2.692 2.251 4.922 5.227 5.389 8.788.451 3.444-.806 6.884-2.753 9.684-4.479 6.442-12.935 9.036-19.937 4.925l-51.416-30.139c-3.989-2.338-8.922-1.596-12.072 1.492L96.816 242.647l46.081-119.366c18.075-13.657 39.013-15.369 39.71-15.415 5.49-.05 9.925-4.517 9.925-10.019 0-5.534-4.486-10.02-10.02-10.02-5.488 0-28.766 3.157-49.569 17.913L71.062 81.852c-5.165-1.994-10.964.577-12.956 5.739L.672 236.365a10.02 10.02 0 0 0 5.738 12.956l57.864 22.338c-2.596 8.238-2.021 17.019 1.662 24.877a34.313 34.313 0 0 0 31.061 19.838 32.65 32.65 0 0 0-.611 7.482 31.368 31.368 0 0 0 2.934 12.184c5.619 12.008 18.109 18.892 31.655 18.891.065 0 .13-.005.195-.005-.89 6.493.092 13.114 2.938 19.199a34.399 34.399 0 0 0 33.738 19.715c-.507 5.979.596 12.042 3.138 17.475a34.34 34.34 0 0 0 13.876 15.208c9.627 5.654 21.672 6.162 31.767 1.442l64.935-30.846 9 9.817c6.693 7.301 15.863 11.004 25.064 11.004 8.206 0 16.437-2.948 22.949-8.917 6.94-6.362 10.627-14.965 10.974-23.702.048.002.095.008.142.01a34.68 34.68 0 0 0 1.51.033c8.518 0 16.61-3.141 22.928-8.933 6.599-6.05 10.478-14.278 10.962-23.203.38.012.76.025 1.139.025 8.518 0 16.61-3.141 22.928-8.933 6.691-6.134 10.593-14.506 10.987-23.575.002-.042.001-.084.002-.126l.126.009a34.69 34.69 0 0 0 1.511.033c8.518 0 16.609-3.141 22.927-8.933 6.691-6.134 10.593-14.506 10.988-23.575.279-6.43-1.237-12.661-4.325-18.13l54.971-26.65c4.983-2.416 7.063-8.409 4.649-13.389zM73.192 104.155l48.396 18.683-50.217 130.08-48.396-18.683zm134.894 305.682c-7.176 3.356-15.846-.073-19.048-7.236a14.49 14.49 0 0 1 .053-11.923c1.633-3.551 4.323-5.383 7.581-7.261l41.527-23.995c4.67-2.696 6.354-8.847 3.735-13.547-2.619-4.701-8.73-6.507-13.482-3.959l-57.304 30.721c-7.238 3.235-15.991-.167-19.095-7.468a14.463 14.463 0 0 1 .195-11.708c1.631-3.513 4.318-5.45 7.587-7.275l58.025-32.512c4.729-2.649 6.483-8.816 3.882-13.56-2.603-4.748-8.761-6.57-13.531-4.002l-68.338 36.805c-5.928 2.695-13.71 3.068-19.049-1.165-5.575-4.419-5.373-12.092-1.644-17.629 2.392-3.553 5.663-5.611 9.328-7.628l68.33-37.534c4.739-2.604 6.552-8.735 4.01-13.497-2.541-4.761-8.649-6.668-13.447-4.179l-84.39 43.768c-7.004 3.203-15.485.078-18.832-6.819a14.42 14.42 0 0 1-.192-12.143c1.63-3.647 4.376-5.595 7.727-7.494l161.844-91.974 46.081 27.012c12.3 7.22 28.276 6.042 39.346-2.955 10.36-8.42 16.064-22.444 12.56-35.578-1.881-7.048-6.375-13.552-12.171-17.974l-8.003-6.082h34.315l37.755 77.878a33.815 33.815 0 0 0-15.14-4.298c-9.065-.392-17.747 2.767-24.439 8.901-4.572 4.191-7.839 9.427-9.577 15.216a33.977 33.977 0 0 0-11.708-2.617c-9.072-.395-17.747 2.767-24.439 8.901s-10.593 14.506-10.987 23.575a33.785 33.785 0 0 0 3.603 16.78 33.845 33.845 0 0 0-13.201 7.514c-6.691 6.134-10.593 14.506-10.987 23.575-.35 8.041 2.102 15.773 6.937 22.087a33.782 33.782 0 0 0-12.776 7.361c-9.702 8.894-13.041 22.165-9.788 34.064zm116.949-15.586c-5.667 5.195-14.505 4.811-19.701-.856l-11.923-13.006c-5.196-5.667-4.811-14.505.856-19.701a13.889 13.889 0 0 1 9.417-3.659c3.775 0 7.538 1.52 10.284 4.515l11.923 13.007c5.196 5.667 4.811 14.505-.856 19.7zm35.555-32.593c-5.668 5.196-14.506 4.811-19.701-.856l-30.651-33.436c-4.328-4.721-4.845-12.035-1.217-17.317 4.267-6.212 12.988-7.891 19.249-3.682 0 0 34.18 37.215 34.863 37.849 1.397 2.322 2.086 5 1.966 7.769a13.857 13.857 0 0 1-4.509 9.673zm35.029-32.112a13.887 13.887 0 0 1-10.028 3.653 13.835 13.835 0 0 1-7.569-2.633c-.572-.735-47.199-51.068-47.199-51.068-5.13-5.597-4.755-14.573.856-19.701 5.613-5.129 14.558-4.755 19.701.856l45.095 49.193a13.857 13.857 0 0 1 3.653 10.028 13.848 13.848 0 0 1-4.509 9.672zm35.555-32.593c-5.604 5.136-14.566 4.745-19.7-.856l-34.926-38.1c-5.131-5.597-4.755-14.573.856-19.7 5.613-5.129 14.558-4.755 19.7.856l34.927 38.101c5.136 5.602 4.746 14.564-.857 19.699zm10.737-44.613-60.827-125.469 46.68-22.63 60.827 125.469z" fill="#ffffff" data-original="#000000" class=""></path></g></svg>