<svg xmlns="http://www.w3.org/2000/svg" version="1.1" xmlns:xlink="http://www.w3.org/1999/xlink" xmlns:svgjs="http://svgjs.com/svgjs" width="512" height="512" x="0" y="0" viewBox="0 0 512 512" style="enable-background:new 0 0 512 512" xml:space="preserve" class=""><g><path d="M512 174.37c-.012-7.773-2.298-15.656-7.353-22.154l-40.568-51.908c-6.795-8.628-17.134-13.021-27.466-13.038-6.149 0-12.41 1.576-17.942 5.026l-39.556 24.61c-4.16 2.653-11.292 4.474-18.181 4.427-5.352.023-10.524-1.048-13.939-2.735l-38.736-18.763c-6.248-3.008-13.213-4.241-20.217-4.253-10.059.047-20.246 2.519-28.432 8.192l-4.52 3.171c-3.613-1.803-9.134-4.55-15.388-7.662-7.5-3.677-16.319-5.16-25.227-5.189-8.047.023-16.092 1.263-23.156 4.247l-26.384 11.258c-4.294 1.862-11.124 3.078-17.908 3.048-6.784.029-13.602-1.187-17.896-3.048l-26.408-11.264c-4.817-2.054-9.966-2.932-15.069-2.938a45.89 45.89 0 0 0-17.146 3.363c-5.422 2.211-10.455 5.475-14.463 9.954L7.965 162.56A31.157 31.157 0 0 0 0 183.382a31.235 31.235 0 0 0 11.013 23.807l44.85 38.264-21.276 22.195c-5.865 6.121-8.785 14.057-8.785 21.904-.011 8.349 3.305 16.779 9.873 22.986l4.316 4.101c4.067 3.858 8.954 6.312 14.068 7.621-2.565 4.718-3.967 9.891-3.956 15.074-.011 8.355 3.305 16.779 9.861 22.993l-.011-.006 4.329 4.119c6.162 5.841 14.15 8.75 22.02 8.745a32.17 32.17 0 0 0 12.445-2.508c1.397 5.667 4.282 11.054 8.82 15.359l4.329 4.119c6.162 5.841 14.137 8.75 22.02 8.745 6.162.006 12.352-1.81 17.681-5.335 1.559 5.015 4.23 9.768 8.296 13.631l4.329 4.119c6.149 5.841 14.137 8.75 22.009 8.745 8.383.006 16.849-3.287 23.102-9.815l18.804-19.636 25.547 23.644c6.115 5.672 13.964 8.494 21.712 8.477 8.512.018 17.099-3.392 23.365-10.1l4.078-4.369c3.52-3.781 5.818-8.256 7.151-12.927l9.896 9.134c6.126 5.649 13.964 8.459 21.701 8.453 8.523.006 17.134-3.404 23.406-10.117l4.055-4.364c4.683-5.003 7.319-11.2 8.133-17.529 2.612.669 5.259 1.123 7.929 1.123 8.523 0 17.11-3.404 23.388-10.111l4.067-4.364a31.605 31.605 0 0 0 8.5-21.608c0-2.391-.343-4.77-.873-7.121 7.069-.937 13.923-4.09 19.135-9.687l4.078-4.369c5.684-6.092 8.5-13.905 8.5-21.614.011-8.482-3.409-17.041-10.158-23.277l-7.627-7.045 68.838-76.11c6.18-6.852 9.031-15.672 9.042-24.358zM62.014 308.065c-3.647-.011-7.214-1.315-10.001-3.956l-4.323-4.101c-2.991-2.828-4.468-6.591-4.48-10.455.012-3.624 1.309-7.162 3.98-9.949l43.576-45.473c2.839-2.962 6.627-4.445 10.513-4.45 3.636.006 7.191 1.315 10.001 3.962l4.305 4.107s4.457 6.591 4.468 10.46a14.36 14.36 0 0 1-2.577 8.163c-.145.145-47.032 49.01-47.032 49.01a14.673 14.673 0 0 1-8.43 2.682zm34.802 45.357c-2.833 2.95-6.615 4.427-10.501 4.439-3.647-.006-7.203-1.315-10.001-3.956l-4.329-4.114-.011-.006c-2.967-2.816-4.457-6.591-4.457-10.455 0-3.624 1.309-7.162 3.967-9.949 0 0 58.086-60.465 58.575-61.048a14.431 14.431 0 0 1 10.047-4.055c3.647.006 7.203 1.309 10.001 3.956l4.329 4.119c2.978 2.816 4.457 6.586 4.468 10.455-.012 3.624-1.32 7.167-3.98 9.954l-58.108 60.66zm47.607 25.708c-2.827 2.957-6.608 4.436-10.495 4.447-3.647-.006-7.203-1.315-10.001-3.962l-4.341-4.114c-2.978-2.822-4.468-6.591-4.468-10.455 0-3.234 1.1-6.371 3.205-8.983l40.452-42.221c2.729-2.461 6.149-3.758 9.693-3.758 3.647.006 7.203 1.309 10.001 3.956l4.341 4.119c2.967 2.816 4.457 6.586 4.468 10.449-.012 3.631-1.332 7.174-3.98 9.954l-38.875 40.568zm76.862-4.456-24.546 25.618c-2.828 2.955-6.615 4.434-10.501 4.445-3.647-.006-7.203-1.315-10.001-3.962l-4.329-4.114c-2.967-2.816-4.457-6.591-4.468-10.455.011-3.631 1.32-7.174 3.98-9.949l24.535-25.617c2.839-2.955 6.627-4.439 10.513-4.445 3.636.006 7.203 1.309 10.001 3.962l4.341 4.114c2.967 2.816 4.445 6.586 4.457 10.449-.014 3.63-1.323 7.173-3.982 9.954zm213.238-69.491c-.005 3.558-1.28 7.043-3.863 9.812l-4.067 4.364c-2.839 3.037-6.691 4.573-10.635 4.579-3.578-.006-7.081-1.263-9.861-3.833l-68.535-63.381-11.851 12.689 73.358 67.959c3.055 2.828 4.59 6.668 4.613 10.589-.023 3.572-1.286 7.051-3.863 9.821l-4.055 4.364c-2.839 3.037-6.691 4.567-10.635 4.579-3.578-.011-7.092-1.274-9.85-3.828l-68.553-63.38-11.839 12.689 60.838 56.26a14.298 14.298 0 0 1 4.434 10.39c0 3.561-1.263 7.045-3.84 9.809l-4.067 4.364c-2.828 3.037-6.691 4.573-10.646 4.584-3.59-.011-7.092-1.274-9.861-3.828l-60.716-56.056h-.011l-.011-.011-11.816 12.712.012.011.227.215 30.41 28.066c2.694 2.769 4.09 6.318 4.101 9.989-.011 3.543-1.263 7.01-3.84 9.775l-4.067 4.369c-2.839 3.037-6.679 4.561-10.612 4.573-3.578-.011-7.081-1.268-9.85-3.833l-26.477-24.517c2.304-4.52 3.59-9.425 3.59-14.347a31.612 31.612 0 0 0-9.861-22.986l-4.341-4.119c-6.149-5.836-14.126-8.75-21.997-8.739-.611 0-1.227.14-1.826.175 0-.145.034-.297.034-.442.011-8.349-9.861-22.998-9.861-22.998l-4.329-4.107a31.788 31.788 0 0 0-16.057-8.18c1.204-3.409 1.885-6.958 1.885-10.513 0-8.349-3.305-16.774-9.861-22.986l-4.329-4.119c-6.162-5.841-14.137-8.756-22.009-8.75-.919 0-1.826.186-2.74.268-.25-8.017-3.479-16.028-9.762-21.997v-.006l-4.317-4.101c-6.162-5.847-14.137-8.762-22.009-8.756-8.396-.006-16.849 3.287-23.102 9.815l-10.286 10.734-45.566-38.864c-3.275-2.804-4.91-6.679-4.922-10.658.011-3.334 1.146-6.598 3.566-9.308l48.079-53.845c1.908-2.141 4.73-4.078 8.035-5.423 3.305-1.344 7.057-2.082 10.565-2.077 3.055 0 5.922.553 8.215 1.542l26.396 11.263c7.441 3.136 16.08 4.422 24.762 4.45 8.692-.029 17.32-1.315 24.762-4.45l26.384-11.258c4.067-1.774 10.204-2.874 16.307-2.851 6.749-.041 13.509 1.356 17.43 3.357 2.49 1.239 4.852 2.415 7.045 3.514l-26.908 18.915c-8.646 6.08-13.306 15.749-13.294 25.506-.011 6.458 2.036 13.032 6.202 18.611l-.011-.012 3.554 4.776c6.749 8.972 17.273 13.585 27.792 13.608 5.94 0 11.991-1.501 17.384-4.736l16.092-9.664c3.282-2.007 8.238-3.275 13.363-3.252 6.022-.035 12.09 1.746 15.738 4.427l44.519 31.917c9.908 7.098 26.046 20.264 34.989 28.549l51.529 47.643c3.051 2.829 4.587 6.652 4.599 10.579zm55.515-118.037-68.646 75.906-31.167-28.81c-9.762-9.012-25.86-22.154-36.658-29.91l-44.507-31.917c-7.546-5.346-16.785-7.657-25.919-7.691-7.773.023-15.604 1.717-22.364 5.742l-16.08 9.664c-2.467 1.483-5.375 2.24-8.396 2.246-5.4.018-10.804-2.502-13.817-6.604l-3.543-4.77-.012-.012c-1.885-2.542-2.763-5.393-2.776-8.279.023-4.364 2.036-8.599 5.935-11.351l47.579-33.43c4.114-2.978 11.433-5.067 18.385-5.015 4.829-.023 9.442.948 12.601 2.508l38.735 18.763c6.604 3.171 14.057 4.468 21.555 4.486 9.634-.047 19.373-2.141 27.397-7.069l39.568-24.615c2.525-1.576 5.556-2.391 8.716-2.391 5.341-.011 10.693 2.409 13.724 6.359l40.568 51.908c2.339 2.973 3.694 7.167 3.694 11.514.007 4.861-1.71 9.644-4.572 12.768z" fill="#ffffff" data-original="#000000" class=""></path></g></svg>