<svg xmlns="http://www.w3.org/2000/svg" version="1.1" xmlns:xlink="http://www.w3.org/1999/xlink" xmlns:svgjs="http://svgjs.com/svgjs" width="512" height="512" x="0" y="0" viewBox="0 0 512 512" style="enable-background:new 0 0 512 512" xml:space="preserve" class=""><g><path d="M501.532 391.423 355.113 245.004c9.635-13.155 8.914-32.146-3.459-44.538-12.225-12.224-31.213-13.226-44.548-3.459l-8.773-8.773c5.904-8.781 7.415-19.406 5.023-28.967l13.416-13.416a15.546 15.546 0 0 0 4.582-11.069c0-7.52-4.763-10.804-4.763-11.45 0-.632.427-.57 1.273-.882 25.698-9.866 35.996-13.656 40.397-15.281 26.468-9.699-5.858-51.238-25.889-71.269-14.821-14.811-51.654-46.216-67.459-32.386-1.915 1.354-2.557 3.088-3.88 6.668-8.324 22.575-14.978 39.339-15.481 41.039-.598 2.388-2.99-4.301-12.072-4.301-9.891 0-13.088 7.779-22.319 15.842-13.187-6.318-29.857-4.183-41.129 7.089l-40.618 40.618c-11.289 11.289-13.406 27.905-7.099 41.129l-9.555 9.555c-6.076 6.097-6.149 15.958 0 22.129a.6.6 0 0 1-.271 1.013c-.281.07-.551.16-.812.261-42.968 16.483-44.55 16.708-48.028 20.174-11.342 11.404 4.069 35.006 13.827 47.717 2.537 3.289 7.259 3.91 10.548 1.374 3.289-2.527 3.91-7.249 1.384-10.548-10.879-14.138-14.729-23.893-14.729-27.944v-.18c2.904-1.567 16.571-6.636 42.052-16.424 11.375-3.329 15.063-17.684 6.668-26.079-.888-.709 1.132-1.64 8.102-8.944 74.137 74.055 70.754 70.966 73.204 72.954-8.974 8.964-8.271 8.392-8.653 8.392-.763 0-3.985-4.763-11.45-4.763-6.989 0-13.105 4.602-15.05 11.25-10.511 27.39-14.737 39.052-16.434 42.062h-.17c-6.958 0-24.816-10.097-44.177-28.797a7.52 7.52 0 0 0-10.448 10.818c14.961 14.451 50.491 43.719 65.213 28.997 3.038-3.028 4.111-5.846 12.453-27.774 6.78-17.871 7.767-20.19 7.991-21.056a.599.599 0 0 1 1.013-.281c6.158 6.158 16.069 6.07 22.119 0l11.701-11.701c.88.163 4.079 1.083 8.854 1.083 7.269 0 14.218-2.136 20.123-6.106l8.783 8.783c-16.55 22.543-.327 54.585 27.744 54.585 7.38 0 14.398-2.306 20.244-6.597l129.384 129.384a7.54 7.54 0 0 0 10.638 0 7.521 7.521 0 0 0 0-10.638L315.488 285.201l29.278-29.268 146.128 146.128a20.538 20.538 0 0 1 6.066 14.629c0 16.422-18.254 26.239-31.935 17.406a7.518 7.518 0 1 0-8.172 12.624C480.485 461.997 512 445.06 512 416.69c0-9.545-3.72-18.519-10.468-25.267zM233.911 62.129c8.389 8.388 22.724 4.758 26.079-6.668 10.438-27.207 15.21-40.23 15.25-40.337 7.721.341 26.4 11.32 46.493 31.413 20.093 20.093 31.073 38.783 31.413 46.493-3.214 1.071-32.109 12.09-40.347 15.25-11.38 3.33-15.066 17.7-6.658 26.079.602.601.318.534-9.926 10.769-2.015-2.451 1.54 1.382-72.954-73.194 10.052-10.06 10.009-10.394 10.65-9.805zm-.28 166.853a21.073 21.073 0 0 1-20.906-5.334l-72.673-72.663c-8.24-8.24-8.289-21.611 0-29.879l40.608-40.618c8.289-8.289 21.663-8.217 29.879 0 .1.1 73.427 73.212 74.949 75.37 5.84 8.139 5.207 19.699-2.276 27.182-45.885 45.885-43.421 44.189-49.581 45.942zm25.277-.361 29.268-29.278 8.011 8.011-29.268 29.278-8.011-8.011zm82.108 9.786c-.095.095-40.51 40.499-43.057 43.047-15.7 15.817-41.34-3.669-30.528-23.034 2.049-3.671 1.43-2.474 39.395-40.427 5.022-4.129 9.3-12.543 20.535-12.543 16.9-.001 25.986 20.626 13.655 32.957zM313.934 480.47l-5.675-12.684c-5.765-12.874-17.767-21.738-31.494-23.643v-14.338c0-13.045-10.608-23.653-23.643-23.653H62.777c-13.045 0-23.653 10.608-23.653 23.653v14.338c-13.727 1.905-25.728 10.769-31.494 23.643C3.256 478.486 0 482.22 0 489.594c0 12.313 10.027 22.329 22.359 22.329h271.18c16.056 0 27.023-16.553 20.395-31.453zm-20.394 16.413H22.359c-4.522 0-7.319-3.78-7.319-7.289 0-2.623 1.102-3.565 6.327-15.672 3.329-7.45 9.987-12.764 17.757-14.499 4.82-1.098-4.563-.403 174.293-.622a7.51 7.51 0 0 0 7.52-7.52 7.516 7.516 0 0 0-7.52-7.52H54.164v-13.957c0-4.753 3.86-8.613 8.613-8.613h190.346c4.743 0 8.603 3.86 8.603 8.613v13.957h-18.228a7.523 7.523 0 0 0-7.52 7.52 7.516 7.516 0 0 0 7.52 7.52c30.364 0 29.632-.207 33.268.622a25.6 25.6 0 0 1 17.767 14.499c5.359 12.437 6.317 13.085 6.317 15.672-.001 3.509-2.798 7.289-7.31 7.289z" fill="#ffffff" data-original="#000000" class=""></path></g></svg>