<svg xmlns="http://www.w3.org/2000/svg" version="1.1" xmlns:xlink="http://www.w3.org/1999/xlink" xmlns:svgjs="http://svgjs.com/svgjs" width="512" height="512" x="0" y="0" viewBox="0 0 512.001 512" style="enable-background:new 0 0 512 512" xml:space="preserve" class=""><g><path d="M448.543 229.914 512 171.035 344.473 0 309.57 34.746h-70.078c-12.351 0-24.488 3.61-34.855 10.14L157.39 9.329 0 162.176l49.758 83c-2.563 1.699-5 3.672-7.258 5.926l-24.68 24.625c-18.343 18.3-18.379 48.113-.078 66.46 7.492 7.508 17.082 12.16 27.445 13.434-.05.91-.085 1.82-.085 2.738-.016 12.555 4.859 24.364 13.722 33.246 8.727 8.747 20.07 13.32 31.54 13.743.394 11.468 4.94 22.82 13.663 31.566 9.168 9.188 21.22 13.781 33.27 13.781 5.172 0 10.34-.851 15.281-2.539 2.227 7.153 6.156 13.707 11.598 19.16 9.164 9.188 21.215 13.782 33.27 13.782 12.015 0 24.03-4.567 33.19-13.703l13.856-13.825a47.875 47.875 0 0 0 4.266-4.886l7.863 6.945c9.055 8.851 20.984 13.719 33.664 13.719h.055c12.863-.016 24.953-5.04 34.043-14.145 5.754-5.765 9.86-12.734 12.101-20.332a48.24 48.24 0 0 0 15.832 2.656h.051c12.867-.011 24.953-5.035 34.043-14.14a47.875 47.875 0 0 0 12.906-23.621c3.301.707 6.696 1.078 10.153 1.078h.05c12.864-.016 24.958-5.035 34.043-14.145 11.278-11.297 15.75-26.844 13.454-41.523 9.593-1.73 18.425-6.317 25.457-13.363 18.757-18.797 18.726-49.352-.07-68.114Zm-234.09-154.75c6.574-6.629 15.7-10.43 25.035-10.43h82.465l22.25-22.152 124.813 127.43-41.72 38.703L321.974 103.44h-78.328l-52.696 53.657a20.362 20.362 0 0 1-14.574 6.136c-5.547.043-10.715-2.136-14.605-6.058-7.903-7.965-7.903-20.918-.008-28.883ZM38.973 321.008c-6.625-6.64-6.61-17.43.027-24.051l24.68-24.625a16.958 16.958 0 0 1 12.011-4.957c4.364 0 8.723 1.664 12.04 4.988 6.624 6.637 6.613 17.426-.028 24.051l-24.68 24.621c-6.636 6.621-17.425 6.61-24.05-.027Zm41.082 49.418a16.902 16.902 0 0 1-4.965-12.031 16.882 16.882 0 0 1 4.996-12.02l28.797-28.73a16.884 16.884 0 0 1 12.012-4.97h.02a16.891 16.891 0 0 1 12.019 4.997 16.89 16.89 0 0 1 4.968 12.031 16.875 16.875 0 0 1-4.996 12.02l-28.8 28.734c-6.637 6.621-17.426 6.61-24.051-.031Zm69.257 45.336c-6.64 6.625-17.43 6.613-24.054-.028-6.621-6.636-6.61-17.425.031-24.05l28.797-28.735c6.64-6.62 17.43-6.61 24.05.031 6.626 6.637 6.614 17.426-.027 24.051Zm74 16.578-13.855 13.824c-6.64 6.625-17.43 6.613-24.05-.027a16.89 16.89 0 0 1-4.97-12.032 16.891 16.891 0 0 1 4.997-12.02l13.855-13.823a16.946 16.946 0 0 1 12.012-4.961c4.36 0 8.722 1.664 12.039 4.988a16.906 16.906 0 0 1 4.969 12.031 16.875 16.875 0 0 1-4.996 12.02Zm237.934-121.707a18.049 18.049 0 0 1-12.848 5.336h-.02a18.058 18.058 0 0 1-12.835-5.309l-72.422-72.27-21.183 21.227 80.367 80.2c7.093 7.078 7.105 18.609.027 25.703a18.033 18.033 0 0 1-12.844 5.335h-.02a18.057 18.057 0 0 1-12.84-5.308l-10.292-10.27v-.004l-70.074-69.925-21.184 21.226 70.078 69.934c7.09 7.078 7.102 18.605.024 25.695-7.078 7.094-18.61 7.106-25.703.027l-70.075-69.925-21.183 21.226 54.902 54.79c7.098 7.077 7.106 18.609.027 25.702a18.033 18.033 0 0 1-12.843 5.336h-.02a18.058 18.058 0 0 1-12.836-5.308l-.324-.324-18.96-16.739c-.778-11.285-5.528-21.797-13.599-29.883-8.468-8.488-19.613-13.328-31.535-13.757-.398-11.465-4.945-22.809-13.668-31.551-8.722-8.746-20.066-13.32-31.535-13.738-.394-11.47-4.941-22.825-13.668-31.57-8.469-8.489-19.613-13.333-31.539-13.762-.398-11.461-4.945-22.809-13.664-31.547-8.023-8.043-18.262-12.563-28.773-13.567l-42.25-70.48L159.867 48.727l22.086 16.62-41.484 41.829c-19.45 19.613-19.446 51.515.011 71.125 9.555 9.625 22.278 14.922 35.836 14.922h.137c13.61-.036 26.356-5.403 35.89-15.114l43.88-44.68h53.328l151.668 151.5c7.094 7.079 7.105 18.61.027 25.704Zm0 0" style="stroke:none;fill-rule:nonzero;fill-opacity:1;" fill="#fdfdfd" data-original="#000000" class=""></path></g></svg>