<svg xmlns="http://www.w3.org/2000/svg" version="1.1" xmlns:xlink="http://www.w3.org/1999/xlink" xmlns:svgjs="http://svgjs.com/svgjs" width="512" height="512" x="0" y="0" viewBox="0 0 24 24" style="enable-background:new 0 0 512 512" xml:space="preserve" class=""><g><g fill="#000" fill-rule="evenodd" clip-rule="evenodd"><path d="M3.83 8.83c-.69.69-1.08 1.844-1.08 3.77a.75.75 0 0 1-1.5 0c0-2.074.41-3.72 1.52-4.83S5.526 6.25 7.6 6.25h3a.75.75 0 0 1 0 1.5h-3c-1.926 0-3.08.39-3.77 1.08zM17 12.65a.75.75 0 0 1 .75.75v3c0 2.074-.41 3.72-1.52 4.83-1.11 1.11-2.756 1.52-4.83 1.52H7.6c-2.074 0-3.72-.41-4.83-1.52-1.11-1.11-1.52-2.756-1.52-4.83a.75.75 0 0 1 1.5 0c0 1.926.39 3.08 1.08 3.77s1.844 1.08 3.77 1.08h3.8c1.926 0 3.08-.39 3.77-1.08.69-.69 1.08-1.844 1.08-3.77v-3a.75.75 0 0 1 .75-.75z" fill="#ffffff" data-original="#000000" class=""></path><path d="M10.313 6.307a.75.75 0 0 1 .817.163l6.4 6.4a.75.75 0 0 1-1.06 1.06l-5.12-5.12v1.39c0 1.159.203 1.692.48 1.97.278.277.811.48 1.97.48a.75.75 0 0 1 0 1.5c-1.242 0-2.308-.197-3.03-.92-.723-.722-.92-1.788-.92-3.03V7a.75.75 0 0 1 .463-.693zM10.85 2a.75.75 0 0 1 .75-.75h4a.75.75 0 0 1 0 1.5h-4a.75.75 0 0 1-.75-.75z" fill="#ffffff" data-original="#000000" class=""></path><path d="M10 2.75A2.246 2.246 0 0 0 7.75 5a.75.75 0 1 1-1.5 0A3.746 3.746 0 0 1 10 1.25h2.62a.75.75 0 0 1 0 1.5zM22 7.25a.75.75 0 0 1 .75.75v6.19a3.562 3.562 0 0 1-3.56 3.56.75.75 0 0 1 0-1.5c1.136 0 2.06-.924 2.06-2.06V8a.75.75 0 0 1 .75-.75z" fill="#ffffff" data-original="#000000" class=""></path><path d="M15.713 1.307a.75.75 0 0 1 .817.163l6 6A.75.75 0 0 1 22 8.75h-3c-1.167 0-2.183-.185-2.874-.876S15.25 6.167 15.25 5V2a.75.75 0 0 1 .463-.693zm1.037 2.504V5c0 1.083.19 1.567.437 1.813s.73.437 1.813.437h1.19z" fill="#ffffff" data-original="#000000" class=""></path></g></g></svg>