<svg xmlns="http://www.w3.org/2000/svg" version="1.1" xmlns:xlink="http://www.w3.org/1999/xlink" xmlns:svgjs="http://svgjs.com/svgjs" width="512" height="512" x="0" y="0" viewBox="0 0 16.933 16.933" style="enable-background:new 0 0 512 512" xml:space="preserve" class=""><g><path fill-rule="evenodd" d="M5.3.53a.53.53 0 0 0-.374.154L1.745 3.865a.53.53 0 0 0-.154.376v7.95c0 .871.718 1.588 1.59 1.588h7.95c.872 0 1.588-.717 1.588-1.588V2.12c0-.872-.716-1.59-1.588-1.59zm.53 1.06h5.301c.303 0 .53.227.53.53v10.07c0 .303-.227.531-.53.531h-7.95a.518.518 0 0 1-.53-.53V4.77h1.588a1.6 1.6 0 0 0 1.59-1.59zm-1.061.752v.839c0 .302-.227.53-.53.53H3.4zm9.01.309a.53.53 0 1 0 0 1.06c.303 0 .53.227.53.53v10.598c0 .303-.227.53-.53.53H5.3a.518.518 0 0 1-.53-.53.53.53 0 1 0-1.058 0c0 .872.717 1.591 1.588 1.591h8.48a1.6 1.6 0 0 0 1.591-1.59V4.24c0-.871-.719-1.59-1.59-1.59zM5.3 6.889a.53.53 0 0 0 0 1.06h3.712a.53.53 0 1 0 0-1.06zm0 2.121a.53.53 0 1 0 0 1.06H7.42a.53.53 0 1 0 0-1.06zm3.711 0a.53.53 0 1 0 0 1.06.53.53 0 0 0 0-1.06z" paint-order="stroke fill markers" fill="#ffffff" data-original="#000000" class=""></path></g></svg>