<svg xmlns="http://www.w3.org/2000/svg" version="1.1" xmlns:xlink="http://www.w3.org/1999/xlink" xmlns:svgjs="http://svgjs.com/svgjs" width="512" height="512" x="0" y="0" viewBox="0 0 24 24" style="enable-background:new 0 0 512 512" xml:space="preserve" class=""><g><path d="m20.53 7.47-5-5a.747.747 0 0 0-.53-.22h-4.6A2.867 2.867 0 0 0 7.25 5.4v.85H6.4A2.867 2.867 0 0 0 3.25 9.4v10.2a2.867 2.867 0 0 0 3.15 3.15h7.2a2.867 2.867 0 0 0 3.15-3.15v-.85h.85a2.867 2.867 0 0 0 3.15-3.15V8a.747.747 0 0 0-.22-.53zm-4.78-2.659 2.439 2.439H17.5c-1.26 0-1.75-.491-1.75-1.75zm-.5 14.789c0 1.187-.463 1.65-1.65 1.65H6.4c-1.187 0-1.65-.463-1.65-1.65V9.4c0-1.187.463-1.65 1.65-1.65h.85v7.85a2.867 2.867 0 0 0 3.15 3.15h4.85zm2.35-2.35h-7.2c-1.187 0-1.65-.463-1.65-1.65V5.4c0-1.187.463-1.65 1.65-1.65h3.85V5.5a2.931 2.931 0 0 0 3.25 3.25h1.75v6.85c0 1.187-.463 1.65-1.65 1.65z" fill="#ffffff" data-original="#000000" class=""></path></g></svg>