<svg xmlns="http://www.w3.org/2000/svg" version="1.1" xmlns:xlink="http://www.w3.org/1999/xlink" xmlns:svgjs="http://svgjs.com/svgjs" width="512" height="512" x="0" y="0" viewBox="0 0 32 32" style="enable-background:new 0 0 512 512" xml:space="preserve" class=""><g><path d="M27 2H13c-1.654 0-3 1.346-3 3v1H5C3.346 6 2 7.346 2 9v18c0 1.654 1.346 3 3 3h14c1.654 0 3-1.346 3-3v-1h5c1.654 0 3-1.346 3-3V5c0-1.654-1.346-3-3-3zm-7 25c0 .551-.448 1-1 1H5c-.552 0-1-.449-1-1V9c0-.551.448-1 1-1h14c.552 0 1 .449 1 1zm8-4c0 .551-.448 1-1 1h-5V9c0-1.654-1.346-3-3-3h-7V5c0-.551.448-1 1-1h14c.552 0 1 .449 1 1zM18 12a1 1 0 0 1-1 1H7a1 1 0 1 1 0-2h10a1 1 0 0 1 1 1zm0 4a1 1 0 0 1-1 1H7a1 1 0 1 1 0-2h10a1 1 0 0 1 1 1zm0 4a1 1 0 0 1-1 1H7a1 1 0 1 1 0-2h10a1 1 0 0 1 1 1zm0 4a1 1 0 0 1-1 1H7a1 1 0 1 1 0-2h10a1 1 0 0 1 1 1z" fill="#ffffff" data-original="#000000"></path></g></svg>