<?xml version="1.0" encoding="UTF-8"?>
<svg xmlns="http://www.w3.org/2000/svg" id="MASTER" viewBox="0 0 24 24" width="512" height="512"><path d="M10.25,11a1.75,1.75,0,0,1,3.5,0,.75.75,0,0,0,1.5,0,3.25,3.25,0,0,0-6.5,0,.75.75,0,0,0,1.5,0Zm-1,0a2.75,2.75,0,0,1,5.5,0,.25.25,0,0,1-.5,0,2.25,2.25,0,0,0-4.5,0,.25.25,0,0,1-.5,0Z"/><path d="M17.8755,9.7534a.25.25,0,0,0-.2051.2881A5.8054,5.8054,0,0,1,17.75,11a.25.25,0,0,1-.5,0,5.25,5.25,0,0,0-10.5,0,.25.25,0,0,1-.5,0A5.751,5.751,0,0,1,17.4229,9.0835a.25.25,0,0,0,.4716-.167A6.2512,6.2512,0,0,0,5.75,11a.75.75,0,0,0,1.5,0,4.75,4.75,0,0,1,9.5,0,.75.75,0,0,0,1.5,0,6.3278,6.3278,0,0,0-.0864-1.0415A.2512.2512,0,0,0,17.8755,9.7534Z"/><path d="M12,1.75a9.2382,9.2382,0,0,0-3.0835.5264.25.25,0,0,0,.167.4716A8.7557,8.7557,0,0,1,20.75,11a.25.25,0,0,1-.5,0,8.25,8.25,0,0,0-16.5,0,.25.25,0,0,1-.5,0A8.7057,8.7057,0,0,1,8.1108,3.1592a.25.25,0,0,0-.2226-.4473A9.2027,9.2027,0,0,0,2.75,11a.75.75,0,0,0,1.5,0,7.75,7.75,0,0,1,15.5,0,.75.75,0,0,0,1.5,0A9.26,9.26,0,0,0,12,1.75Z"/><path d="M15.4409,13.876a2.8374,2.8374,0,0,1-2.8032-1.2114.7432.7432,0,0,0-.604-.3194h-.0078a.74.74,0,0,0-.5987.3042A3.1727,3.1727,0,0,1,9.92,13.7632,2.8782,2.8782,0,0,1,8.56,13.876a.75.75,0,0,0-.5757.16.7729.7729,0,0,0-.28.5616,9.4982,9.4982,0,0,0,.0479,1.43,9.3775,9.3775,0,0,0,.4673,2.0547.25.25,0,1,0,.4716-.1645,8.8147,8.8147,0,0,1-.4868-3.2984.2673.2673,0,0,1,.0977-.1967.2443.2443,0,0,1,.1836-.0523,3.3867,3.3867,0,0,0,1.5952-.1333,3.6779,3.6779,0,0,0,1.749-1.29.2408.2408,0,0,1,.1968-.1016.2039.2039,0,0,1,.2046.1089,3.336,3.336,0,0,0,3.2851,1.416.21.21,0,0,1,.1831.0523.2673.2673,0,0,1,.0977.1967,8.888,8.888,0,0,1-.0449,1.3536,9.7813,9.7813,0,0,1-2.2227,5.0683,2.0028,2.0028,0,0,1-3.0576,0,10.6119,10.6119,0,0,1-1.3784-2.1489.25.25,0,0,0-.4512.2158,11.0881,11.0881,0,0,0,1.4438,2.25,2.5019,2.5019,0,0,0,3.83,0,10.28,10.28,0,0,0,2.3335-5.3311,9.4982,9.4982,0,0,0,.0479-1.43.7729.7729,0,0,0-.28-.5616A.7412.7412,0,0,0,15.4409,13.876Z"/><path d="M11.5,18.34a.7483.7483,0,0,0,.53-.2192l1.6465-1.6465a.25.25,0,0,0-.3536-.3535l-1.6464,1.6465a.25.25,0,0,1-.3536,0l-.6464-.6465a.25.25,0,0,0-.3536.3535l.6465.6465A.7483.7483,0,0,0,11.5,18.34Z"/></svg>
