<svg xmlns="http://www.w3.org/2000/svg" version="1.1" xmlns:xlink="http://www.w3.org/1999/xlink" xmlns:svgjs="http://svgjs.com/svgjs" width="512" height="512" x="0" y="0" viewBox="0 0 512 512" style="enable-background:new 0 0 512 512" xml:space="preserve"><g><path d="M437.02 74.98C388.667 26.629 324.38 0 256 0S123.333 26.629 74.98 74.98C26.629 123.333 0 187.62 0 256s26.629 132.667 74.98 181.02C123.333 485.371 187.62 512 256 512s132.667-26.629 181.02-74.98C485.371 388.667 512 324.38 512 256s-26.629-132.667-74.98-181.02zm21.24 79.944h-66.961c-6.818-28.124-16.521-54.045-28.837-76.54-6.495-11.864-13.555-22.458-21.077-31.754 27.514 11.218 52.778 27.92 74.422 49.564 17.46 17.461 31.706 37.277 42.453 58.73zM482 256c0 20.336-2.679 40.259-7.849 59.375h-75.092c2.564-19.232 3.892-39.128 3.892-59.375 0-24.383-1.922-48.26-5.62-71.076h73.322C478.121 207.552 482 231.478 482 256zM256 371.62c-63.753 0-115.62-51.867-115.62-115.62S192.247 140.38 256 140.38 371.62 192.247 371.62 256 319.753 371.62 256 371.62zm104.199-216.696c-23.028-23.732-54.061-39.65-88.699-43.342V32.076c23.865 6.377 46.391 27.371 64.646 60.715 10.052 18.358 18.182 39.344 24.225 62.133zM241.5 31.816v79.66c-35.041 3.489-66.45 19.487-89.699 43.448h-.173c6.043-22.789 14.174-43.775 24.225-62.133 18.511-33.81 41.412-54.923 65.647-60.975zm0 368.708v79.66c-24.235-6.052-47.136-27.166-65.646-60.975-10.087-18.423-18.24-39.493-24.29-62.376 23.272 24.096 54.777 40.19 89.936 43.691zm30 79.4v-79.506c34.756-3.704 65.885-19.717 88.937-43.584-6.05 22.883-14.203 43.953-24.29 62.376-18.256 33.343-40.782 54.337-64.647 60.714zM96.194 96.194c21.643-21.644 46.908-38.346 74.422-49.564-7.522 9.295-14.582 19.89-21.077 31.754-12.316 22.495-22.019 48.417-28.837 76.54H53.74c10.747-21.453 24.994-41.269 42.454-58.73zm-54.847 88.73h73.322c-3.698 22.816-5.62 46.693-5.62 71.076 0 20.247 1.328 40.143 3.892 59.375H37.849C32.679 296.259 30 276.336 30 256c0-24.522 3.879-48.448 11.347-71.076zm6.961 160.451h69.753c6.846 32.645 17.472 62.659 31.478 88.241 6.495 11.864 13.555 22.458 21.077 31.754-27.514-11.218-52.778-27.92-74.422-49.564-20.592-20.592-36.706-44.465-47.886-70.431zm367.498 70.431c-21.643 21.644-46.908 38.346-74.422 49.564 7.522-9.295 14.582-19.89 21.077-31.754 14.006-25.582 24.632-55.596 31.478-88.241h69.753c-11.18 25.966-27.294 49.839-47.886 70.431z" fill="#ffffff" data-original="#000000"></path><path d="M298.924 211.707c0-23.668-19.256-42.924-42.924-42.924s-42.924 19.256-42.924 42.924v21.994h-25.53v90h136.908v-90h-25.53zm-55.848 0c0-7.126 5.798-12.924 12.924-12.924s12.924 5.798 12.924 12.924v21.994h-25.848zm51.378 81.994h-76.908v-30h76.908z" fill="#ffffff" data-original="#000000"></path></g></svg>