<svg xmlns="http://www.w3.org/2000/svg" xmlns:xlink="http://www.w3.org/1999/xlink" xmlns:svgjs="http://svgjs.com/svgjs" version="1.1" width="512" height="512" x="0" y="0" viewBox="0 0 36 36" style="enable-background:new 0 0 512 512" xml:space="preserve" class=""><g><path d="M18 31.87A13.86 13.86 0 0 1 6 25l3.54-1a4.28 4.28 0 0 0 3.09-4.1v-1.64a2.12 2.12 0 0 1 .63-1.51l2.39-2.39a4.24 4.24 0 0 0 1.25-3v-2.7a4.24 4.24 0 0 0-1.25-3l-1.04-1.09A13.81 13.81 0 0 1 31.87 18H34A16 16 0 0 0 18 2 16.19 16.19 0 0 0 2 18a16 16 0 0 0 19.43 15.63L21 31.55a13.91 13.91 0 0 1-3 .32zm-3.2-20.53a2.12 2.12 0 0 1-.62 1.51l-2.39 2.39a4.24 4.24 0 0 0-1.25 3v1.59A2.14 2.14 0 0 1 9 21.9L5.1 23a13.36 13.36 0 0 1-1-5 14 14 0 0 1 8.28-12.65l1.8 1.8a2.12 2.12 0 0 1 .63 1.51z" fill="#f76964" data-original="#ff0040" class=""/><path d="M32.93 20.71a8 8 0 0 1-4-.91l-1.11-.6a1.07 1.07 0 0 0-1 0l-1.11.6a8 8 0 0 1-4 .91 1.07 1.07 0 0 0-1.07 1.07v2.46a10.66 10.66 0 0 0 6.2 9.66 1.07 1.07 0 0 0 .89 0A10.66 10.66 0 0 0 34 24.24v-2.46a1.07 1.07 0 0 0-1.07-1.07zm-1.07 3.53a8.53 8.53 0 0 1-4.51 7.51 8.53 8.53 0 0 1-4.51-7.51v-1.42a9.64 9.64 0 0 0 3.91-1.15l.6-.33.6.33a9.64 9.64 0 0 0 3.91 1.15z" fill="#f76964" data-original="#ff0040" class=""/></g></svg>