<svg xmlns="http://www.w3.org/2000/svg" version="1.1" xmlns:xlink="http://www.w3.org/1999/xlink" xmlns:svgjs="http://svgjs.com/svgjs" width="512" height="512" x="0" y="0" viewBox="0 0 68 68" style="enable-background:new 0 0 512 512" xml:space="preserve" class=""><g><path d="M26.588 49.924c-13.206 0-23.95-10.735-23.95-23.93 0-13.206 10.744-23.95 23.95-23.95s23.95 10.744 23.95 23.95c0 4.055-1.036 8.062-2.995 11.59a.373.373 0 0 1-.232.18c-2.24.594-4.423.937-6.494 1.02-.153.821-.559 3.347-.44 6.568a.374.374 0 0 1-.16.321 23.803 23.803 0 0 1-13.629 4.251zm0-47.13c-12.792 0-23.2 10.408-23.2 23.2 0 12.782 10.408 23.18 23.2 23.18 4.683 0 9.186-1.383 13.033-4.002-.12-3.92.493-6.714.52-6.834a.374.374 0 0 1 .355-.293c2.055-.058 4.23-.383 6.468-.965a23.174 23.174 0 0 0 2.824-11.086c0-12.792-10.407-23.2-23.2-23.2zm20.627 34.607h.01z" fill="#ffffff" data-original="#000000" class=""></path><path d="M26.592 49.928c-5.661 0-10.268-10.739-10.268-23.937 0-13.43 4.51-23.95 10.268-23.95s10.269 10.52 10.269 23.95c0 13.198-4.607 23.937-10.269 23.937zm0-47.137c-5.248 0-9.518 10.407-9.518 23.2 0 12.785 4.27 23.187 9.518 23.187s9.519-10.402 9.519-23.187c0-12.793-4.27-23.2-9.519-23.2z" fill="#ffffff" data-original="#000000" class=""></path><path d="M26.586 36.252c-13.199 0-23.937-4.606-23.937-10.268s10.738-10.268 23.937-10.268c13.43 0 23.95 4.51 23.95 10.268 0 5.758-10.52 10.268-23.95 10.268zm0-19.786c-12.785 0-23.187 4.27-23.187 9.518s10.402 9.518 23.187 9.518c12.793 0 23.2-4.27 23.2-9.518s-10.407-9.518-23.2-9.518zM52.498 65.959c-.322 0-.642-.076-.935-.229-9.431-4.97-11.696-13.81-11.934-20.351-.15-4.03.485-6.92.512-7.041a.374.374 0 0 1 .355-.293c2.097-.059 4.326-.398 6.623-1.006 3.077-.83 5.191-1.863 5.212-1.873a.373.373 0 0 1 .332 0c.054.027 5.556 2.706 11.835 2.879a.375.375 0 0 1 .356.293c.043.191 4.097 19.22-11.42 27.392h-.002a2.021 2.021 0 0 1-.934.229zm.761-.561h.01zM40.817 38.785c-.153.82-.558 3.346-.44 6.567.233 6.343 2.422 14.913 11.534 19.714.367.19.806.191 1.174 0 13.983-7.363 11.525-23.913 11.092-26.281-5.705-.228-10.715-2.422-11.68-2.868-.56.262-2.491 1.12-5.184 1.846-2.246.595-4.43.939-6.496 1.022z" fill="#ffffff" data-original="#000000" class=""></path><path d="M50.718 54.987c-.5 0-.97-.195-1.326-.548l-3.461-3.462c-.354-.354-.55-.825-.55-1.326s.196-.972.55-1.326a1.877 1.877 0 0 1 2.651 0l2.136 2.135 5.694-5.694a1.876 1.876 0 0 1 2.651 2.652l-7.019 7.02a1.867 1.867 0 0 1-1.326.55zm-3.461-6.46a1.122 1.122 0 0 0-1.125 1.124c0 .3.117.583.33.795l3.46 3.462a1.155 1.155 0 0 0 1.592 0l7.019-7.02c.212-.212.33-.495.33-.796s-.118-.583-.33-.796a1.152 1.152 0 0 0-1.59 0l-5.96 5.96a.375.375 0 0 1-.53 0l-2.401-2.4c-.22-.22-.507-.33-.795-.33z" fill="#ffffff" data-original="#000000" class=""></path></g></svg>