<svg xmlns="http://www.w3.org/2000/svg" version="1.1" xmlns:xlink="http://www.w3.org/1999/xlink" xmlns:svgjs="http://svgjs.com/svgjs" width="512" height="512" x="0" y="0" viewBox="0 0 64 64" style="enable-background:new 0 0 512 512" xml:space="preserve" class=""><g><path d="M59.974 33.025a1.001 1.001 0 0 0-.4-.801l-3.986-2.985a1.366 1.366 0 0 0-.928-.2C50.065-2.195 5.654-.144 4.006 31.503a25.405 25.405 0 0 0 37.117 23.059 15.554 15.554 0 0 0 4.906 2.857c9.025-3.12 14.388-15.548 13.945-24.393zM22.243 9.69a22.976 22.976 0 0 0-5.654 9.487 22.888 22.888 0 0 0-9.48 5.662A23.348 23.348 0 0 1 22.243 9.69zm-6.367 11.877A41.527 41.527 0 0 0 14.596 31h-8.52c.557-3.74 4.2-7.226 9.8-9.432zM14.596 33a41.419 41.419 0 0 0 1.28 9.425C10.248 40.217 6.597 36.713 6.07 33zm-7.444 6.215a22.973 22.973 0 0 0 9.438 5.598 22.953 22.953 0 0 0 5.684 9.474A23.701 23.701 0 0 1 7.152 39.215zM28.42 55.333c-3.756-.549-7.228-4.161-9.442-9.804a41.272 41.272 0 0 0 9.442 1.286zm0-10.527a38.866 38.866 0 0 1-10.23-1.586A38.565 38.565 0 0 1 16.613 33H28.42zm0-13.806H16.614a38.7 38.7 0 0 1 1.574-10.223 38.515 38.515 0 0 1 10.232-1.552zm0-13.792a41.674 41.674 0 0 0-9.442 1.257c2.216-5.633 5.726-9.287 9.442-9.815zm23.269 7.569a22.92 22.92 0 0 0-9.437-5.6 22.883 22.883 0 0 0-5.666-9.487 23.245 23.245 0 0 1 15.103 15.087zm.498 4.263h-8.044a39.851 39.851 0 0 0-1.189-7.481c4.609 1.806 7.916 4.486 9.233 7.48zM30.42 8.655c3.747.56 7.237 4.207 9.443 9.81a41.674 41.674 0 0 0-9.443-1.257zm0 10.57a38.541 38.541 0 0 1 10.237 1.553 37.265 37.265 0 0 1 1.48 8.262h-5.07c-.801.093-1.283.815-2.945 1.96h-3.702zm0 13.775h1.663a28.363 28.363 0 0 0 2.141 11.544 41.217 41.217 0 0 1-3.804.26zm0 22.332v-8.516c6.067-.171 3.627-1.49 6.905 3.533-2.007 2.877-4.41 4.616-6.905 4.983zm6.12-1.02a17.014 17.014 0 0 0 2.051-2.298c.318.38.652.737.99 1.09a23.36 23.36 0 0 1-3.041 1.208zm9.488 1.004c-7.577-3.255-12.186-13.824-11.967-21.77l3.34-2.506h17.254l3.338 2.5c.227 7.976-4.398 18.53-11.965 21.776z" fill="#f9f9f9" data-original="#000000" class=""></path><path d="m51.184 37.474-6.458 6.457-2.875-2.874a1 1 0 0 0-1.414 1.414l3.582 3.582a1 1 0 0 0 1.414 0l7.165-7.164a1 1 0 0 0-1.414-1.415z" fill="#f9f9f9" data-original="#000000" class=""></path></g></svg>