<?xml version="1.0" encoding="UTF-8"?>
<svg xmlns="http://www.w3.org/2000/svg" id="line" viewBox="0 0 64 64" width="512" height="512"><path d="M56.92162,13.88883,32.37,4.06818a1.0475,1.0475,0,0,0-.74,0L7.07838,13.88883a.99655.99655,0,0,0-.61008,1.09l3.29025,19.7613a25.40153,25.40153,0,0,0,9.87064,16.231L31.4,59.80181a1.0047,1.0047,0,0,0,1.2,0l11.7708-8.8306a25.40153,25.40153,0,0,0,9.87064-16.231l3.29025-19.7613A.99655.99655,0,0,0,56.92162,13.88883Zm-4.65027,20.5213a23.424,23.424,0,0,1-9.10064,14.961L32,57.75169,20.82929,49.37113a23.424,23.424,0,0,1-9.10064-14.961L8.56847,15.44893,32,6.07826l23.43153,9.37067Z"/><path d="M31.63,8.51842,11.12864,16.719a1.01016,1.01016,0,0,0-.62,1.0901l2.75018,16.50108A21.48225,21.48225,0,0,0,21.56932,47.981L31.4,55.35151a1,1,0,0,0,1.2,0L42.43068,47.981a21.48225,21.48225,0,0,0,8.31054-13.67088L53.4914,17.80907a1.01016,1.01016,0,0,0-.62-1.0901L32.37,8.51842A1.04826,1.04826,0,0,0,31.63,8.51842Zm19.75129,9.76065-2.62016,15.701A19.40875,19.40875,0,0,1,41.23059,46.381L32,53.30138,22.76941,46.381a19.40875,19.40875,0,0,1-7.53052-12.40084l-2.62016-15.701L32,10.52856Z"/><path d="M32,27.08366a14.15975,14.15975,0,0,0-10.03874,4.15066,1.00016,1.00016,0,0,0,1.41031,1.418,12.27372,12.27372,0,0,1,17.25693.00018,1.00021,1.00021,0,0,0,1.41018-1.41825A14.1597,14.1597,0,0,0,32,27.08366Z"/><path d="M17.292,26.569a1.00014,1.00014,0,0,0,1.41421,1.41409c6.98105-7.27892,19.60675-7.27879,26.58762.00025a1.00023,1.00023,0,0,0,1.41409-1.4144C38.98386,18.51389,25.016,18.514,17.292,26.569Z"/><path d="M32,33.68077c-1.42331-.22694-6.89077,1.707-5.37938,3.6311a.99812.99812,0,0,0,1.41428.00977,5.63844,5.63844,0,0,1,7.9302.00006.99984.99984,0,0,0,1.41416-.00983C38.89279,35.388,33.42044,33.45377,32,33.68077Z"/><path d="M32,39.04044a2.23525,2.23525,0,0,0,.00006,4.47032A2.23525,2.23525,0,0,0,32,39.04044Z"/></svg>
