<svg height="512" viewBox="0 0 24 24" width="512" xmlns="http://www.w3.org/2000/svg" xmlns:xlink="http://www.w3.org/1999/xlink"><linearGradient id="linear-gradient" gradientUnits="userSpaceOnUse" x1="15.25" x2="8.75" y1="9.75" y2="9.75"><stop offset="0" stop-color="#edf2ff"/><stop offset=".3902" stop-color="#eaf0fe"/><stop offset=".6248" stop-color="#e2ebfa"/><stop offset=".8176" stop-color="#d4e1f3"/><stop offset=".9878" stop-color="#c0d3e9"/><stop offset="1" stop-color="#bed2e8"/></linearGradient><linearGradient id="linear-gradient-2" x1="18.25" x2="5.75" xlink:href="#linear-gradient" y1="8.25" y2="8.25"/><linearGradient id="linear-gradient-3" x1="21.25" x2="2.75" xlink:href="#linear-gradient" y1="6.75" y2="6.75"/><linearGradient id="linear-gradient-4" gradientUnits="userSpaceOnUse" x1="16.305" x2="7.695" y1="17.298" y2="17.298"><stop offset="0" stop-color="#807a6e"/><stop offset=".3929" stop-color="#7d786c"/><stop offset=".6291" stop-color="#756f65"/><stop offset=".8233" stop-color="#676158"/><stop offset=".9947" stop-color="#534e47"/><stop offset="1" stop-color="#524d46"/></linearGradient><g id="GRADIENT"><path d="m12 7.75a3.2538 3.2538 0 0 0 -3.25 3.25.75.75 0 0 0 1.5 0 1.75 1.75 0 0 1 3.5 0 .75.75 0 0 0 1.5 0 3.2538 3.2538 0 0 0 -3.25-3.25z" fill="url(#linear-gradient)"/><path d="m12 4.75a6.257 6.257 0 0 0 -6.25 6.25.75.75 0 0 0 1.5 0 4.75 4.75 0 0 1 9.5 0 .75.75 0 0 0 1.5 0 6.257 6.257 0 0 0 -6.25-6.25z" fill="url(#linear-gradient-2)"/><path d="m12 1.75a9.26 9.26 0 0 0 -9.25 9.25.75.75 0 0 0 1.5 0 7.75 7.75 0 0 1 15.5 0 .75.75 0 0 0 1.5 0 9.26 9.26 0 0 0 -9.25-9.25z" fill="url(#linear-gradient-3)"/><path d="m16.0161 14.0361a.7412.7412 0 0 0 -.5752-.16 2.8374 2.8374 0 0 1 -2.8032-1.2114.7432.7432 0 0 0 -.604-.3194h-.0078a.74.74 0 0 0 -.5987.3042 3.1727 3.1727 0 0 1 -1.5072 1.1137 2.8782 2.8782 0 0 1 -1.36.1128.75.75 0 0 0 -.5757.16.7729.7729 0 0 0 -.28.5616 9.4982 9.4982 0 0 0 .0479 1.43 10.2764 10.2764 0 0 0 2.3339 5.3311 2.5019 2.5019 0 0 0 3.83 0 10.28 10.28 0 0 0 2.3335-5.3311 9.4982 9.4982 0 0 0 .0479-1.43.7729.7729 0 0 0 -.2814-.5615z" fill="url(#linear-gradient-4)"/><path d="m11.5 18.34a.7483.7483 0 0 1 -.53-.2192l-.6465-.6465a.25.25 0 0 1 .3536-.3535l.6464.6465a.25.25 0 0 0 .3536 0l1.6464-1.6465a.25.25 0 0 1 .3536.3535l-1.6471 1.6463a.7483.7483 0 0 1 -.53.2194z" fill="#a5fa9b"/></g><g id="Highlight_-0_5" fill="#999183" data-name="Highlight -0,5"><path d="m14 20.2314a.2463.2463 0 0 1 -.1377-.0415.25.25 0 0 1 -.0708-.3461 9.948 9.948 0 0 0 .5581-.9566.25.25 0 1 1 .4453.2266 10.2671 10.2671 0 0 1 -.5864 1.0053.2491.2491 0 0 1 -.2085.1123z"/><path d="m15.0117 18.25a.2466.2466 0 0 1 -.0869-.0156.25.25 0 0 1 -.1475-.3213 8.3931 8.3931 0 0 0 .4771-1.9951.2475.2475 0 0 1 .2759-.2212.25.25 0 0 1 .2212.2759 8.8842 8.8842 0 0 1 -.5054 2.1142.25.25 0 0 1 -.2344.1631z"/></g></svg>