<svg xmlns="http://www.w3.org/2000/svg" version="1.1" xmlns:xlink="http://www.w3.org/1999/xlink" xmlns:svgjs="http://svgjs.com/svgjs" width="512" height="512" x="0" y="0" viewBox="0 0 512 512" style="enable-background:new 0 0 512 512" xml:space="preserve" class=""><g><path d="M137.925 57.171c8.712-15.912 18.319-29.796 28.644-41.531-33.996 12.648-65.173 32.562-91.588 58.977-20.606 20.607-37.251 44.115-49.587 69.593h79.942c7.644-32.013 18.609-61.506 32.589-87.039zM406.664 144.209h79.942c-12.335-25.478-28.98-48.986-49.586-69.593-26.415-26.415-57.593-46.328-91.588-58.977 10.325 11.735 19.932 25.62 28.644 41.531 13.979 25.534 24.944 55.027 32.588 87.039zM92.623 256c0-28.091 2.266-55.584 6.64-81.791H13.168C4.509 200.112 0 227.527 0 255.636c0 23.653 3.191 46.814 9.36 68.997h87.9c-3.061-22.196-4.637-45.206-4.637-68.633zM419.377 256c0 23.427-1.576 46.437-4.636 68.633h87.9c6.169-22.183 9.36-45.344 9.36-68.997 0-28.109-4.509-55.523-13.168-81.427h-86.095c4.373 26.207 6.639 53.7 6.639 81.791zM102.412 354.633H19.777c12.693 30.283 31.285 58.104 55.203 82.022 26.175 26.175 57.027 45.968 90.663 58.633-9.972-11.508-19.268-25.025-27.719-40.459-15.875-28.996-27.864-63.095-35.512-100.196zM388.551 256c0-73.088-59.462-132.551-132.551-132.551S123.449 182.912 123.449 256 182.912 388.551 256 388.551 388.551 329.088 388.551 256zm-57.443 74.262H180.892v-97.469h28.709v-26.6c0-25.585 20.814-46.399 46.399-46.399s46.399 20.814 46.399 46.399v26.6h28.709zM271.562 1.8v92.617c39.996 3.822 75.804 22.21 102.037 49.792h2.193c-6.894-26.683-16.312-51.228-28.03-72.631-21.377-39.042-47.988-63.243-76.2-69.778zM241.562 94.316V1.562c-28.629 6.146-55.664 30.456-77.324 70.016-11.718 21.402-21.136 45.948-28.03 72.631h2.193c26.478-27.841 62.713-46.311 103.161-49.893zM271.562 417.583V510.2c28.212-6.535 54.823-30.736 76.199-69.778 12.192-22.269 21.886-47.947 28.846-75.888-26.47 29.386-63.496 49.079-105.045 53.049zM241.562 510.438v-92.754c-42.004-3.72-79.461-23.499-106.17-53.15 6.96 27.941 16.654 53.619 28.846 75.888 21.66 39.56 48.696 63.87 77.324 70.016zM374.075 454.829c-8.45 15.434-17.746 28.951-27.719 40.459 33.636-12.665 64.488-32.458 90.663-58.633 23.918-23.918 42.51-51.74 55.203-82.022h-82.635c-7.647 37.101-19.636 71.2-35.512 100.196z" fill="#ffffff" data-original="#000000" class=""></path><path d="M272.399 206.193c0-9.043-7.356-16.399-16.399-16.399s-16.399 7.356-16.399 16.399v26.6H272.4v-26.6zM210.892 262.793h90.217v37.469h-90.217z" fill="#ffffff" data-original="#000000" class=""></path></g></svg>