<svg clip-rule="evenodd" fill-rule="evenodd" height="512" image-rendering="optimizeQuality" shape-rendering="geometricPrecision" text-rendering="geometricPrecision" viewBox="0 0 6.82666 6.82666" width="512" xmlns="http://www.w3.org/2000/svg"><g id="Layer_x0020_1"><g id="_463695096"><path id="_463696080" d="m2.99398 6.05768c-.472465 0-.936173-.126059-1.34092-.364665-.381224-.224724-.701693-.543146-.92885-.922449l-.00034252-.00001181-.0204724-.0350236c-.231437-.400047-.353728-.857228-.353728-1.32211.00000787-.465181.122291-.922461.353835-1.32244.227768-.393571.555047-.723929.946398-.955386.402791-.238209.864299-.364929 1.33481-.366476.0031811-.00012598.00609055-.00013386.00925984-.00013386.472472-.00000787.936039.126106 1.34079.364673.392823.231575.721185.562626.949563.957346.169193.291992.279165.609638.327031.944043l.00073228.00493307v.00500394l-.070622.00006693-.069063.00986614c-.0453307-.316543-.149472-.617197-.309516-.89361-.44676-.772299-1.27782-1.25202-2.1688-1.25202-.00156299 0-.00279921-.00002756-.00438583.00005906l-.00325984.00006299c-.887823.00248425-1.71608.482161-2.16151 1.25186-.219106.378634-.334957.811634-.334957 1.25215.00000787.434051.112547.860961.325697 1.23586l.00939764.0159921c.44665.772319 1.27768 1.25209 2.1689 1.25209.669299-.00000787 1.29839-.260776 1.77147-.734362l.0992717.0991575c-.499488.500118-1.16393.77552-1.87074.775512z"/><path id="_463696056" d="m2.99398 6.05744c-.301705 0-.564677-.361256-.740799-1.01706l.135587-.036378c.153469.571717.379634.913126.605209.913126.00353937-.00000787.00730709 0 .0108386-.00012205.263579-.0133937.525083-.496217.666984-1.23006.0747874-.385051.114252-.825457.114252-1.27367 0-.328807-.0207126-.64913-.0616339-.952075l.139106-.0187835c.0417953.309146.0628425.635803.0628425.970858 0 .457039-.0403189.906709-.116811 1.30037-.0743976.385094-.182091.710917-.311079.942339-.141402.253461-.309496.392079-.485988.401091-.00559843.00035827-.0123031.00036614-.0185079.00035827z"/><path id="_463695768" d="m2.12444 4.38383c-.0416575-.308957-.0628543-.635449-.0628543-.970402.00001575-.457248.040437-.906992.116807-1.30067.0744409-.385051.18185-.710917.310957-.942303.141295-.253449.309378-.392154.485866-.401118.00574803-.0003189.0124252-.00035433.0185157-.00035433.301598-.00000787.564669.361177.741039 1.017l-.135543.0364173c-.153717-.571768-.380043-.913114-.605496-.913114-.0035315 0-.00743307-.00003937-.0110866.00016535-.263319.013374-.524839.496157-.666496 1.22997-.0746614.385075-.114248.825594-.114248 1.274.00001575.328693.0207087.648878.0616299.95163l-.139091.0187717z"/><path id="_463695720" d="m4.32004 3.48356h-3.900071v-.1403h3.900071z"/><path id="_463696200" d="m3.41043 2.19628h-2.646253v-.1403h2.646253z"/><path id="_463696320" d="m5.22367 2.19628h-1.15286v-.1403h1.15286z"/><path id="_463695600" d="m1.91714 4.77056h-1.152963v-.14032h1.152963z"/><path id="_463694928" d="m4.45035 4.77042h-1.87268v-.1403h1.87268z"/><path id="_463695552" d="m3.74064 1.86615c-.143386 0-.259949.116634-.259949.26.00000394.143339.116563.25998.259925.25998.143378-.00000394.260043-.116634.260043-.25998 0-.143366-.116685-.26-.26002-.26zm0 .660276c-.220724 0-.400264-.179559-.400264-.400276.00000394-.22074.179531-.400303.40024-.400303.220827-.00001181.400358.179571.400358.400303 0 .220701-.179535.400287-.400335.400276z"/><path id="_463695384" d="m2.24735 4.44042c-.143358 0-.260067.116646-.260067.259992.00001575.143358.116685.259984.260047.259984.143374-.00000394.259921-.116626.259921-.259984.00000787-.143354-.116563-.259984-.259902-.259992zm0 .660276c-.220724 0-.400382-.179555-.400382-.400283.00001575-.22072.179657-.400299.400362-.400299.220713-.00000787.400236.179587.400236.400299.00000787.22072-.179531.400287-.400217.400283z"/><path id="_463695408" d="m5.35875 3.05223c-.00512205 0-.0101181.00093701-.0149921.00283071l-.936268.363862c-.0159528.00616929-.0265709.0218031-.0265709.0389055l.00001181.570177c0 .611165.337866 1.16379.881953 1.44223l.00014173-.00000394.0956181.0489606.0959724-.0490827c.544079-.278437.882067-.831043.882067-1.44224v-.570039c0-.017378-.0103504-.0326299-.0265512-.0388898l-.93628-.363846c-.00487795-.00191732-.00999606-.0028622-.0151024-.0028622zm-.0001063 2.6247-.159689-.0818465c-.288661-.147744-.530583-.372-.69976-.648598-.169181-.276618-.258591-.594205-.258591-.918465l.00001181-.570189c0-.0745433.0466378-.142724.115945-.169693l.936311-.363835c.0425039-.0165787.089378-.0165866.131886.00004331l.936177.363803c.0705157.0273622.116063.0939843.116063.169681v.570039c0 .66413-.367232 1.26467-.958453 1.56709l-.159902.0819646z"/><path id="_463695240" d="m4.66192 3.62169v.406323c0 .493063.266134.940083.696941 1.17522.430949-.235138.697067-.682134.697067-1.17521l.00001575-.406335-.697083-.270843-.696941.270843zm.696941 1.73966-.0318976-.0163189c-.496831-.25428-.805362-.758925-.805362-1.317l.00000394-.502346.837256-.325386.837398.325386v.502335c0 .558094-.308531 1.06275-.805358 1.31702l-.0320394.016311z"/><path id="_463695120" d="m5.01539 4.28144c-.0145 0-.0281417.00566535-.038374.0159094-.0210669.0211339-.0210709.0555157 0 .0766496l.217197.217165.54676-.546748c.0211811-.0211457.0211732-.0555157-.00001968-.0766496-.0102323-.0102559-.0238701-.0158976-.0383701-.0158976-.0143661 0-.0280118.00564173-.0382441.0158976l-.470126.470102-.140567-.140516c-.010248-.010252-.0238898-.0159016-.0382559-.0159134zm.178823.508165-.316453-.316394c-.0757756-.0758425-.0757756-.199236-.00001181-.275071.0367913-.0367598.085622-.0570039.137634-.0570039.0518858-.00001181.100732.020248.137516.0570039l.041315.0413031.370874-.37089c.0367756-.0367638.0856063-.0569961.137496-.0569961.0520118-.00000394.10085.0202441.137638.0569921.0757598.0758346.0757559.19924 0 .275083l-.646008.645972z"/></g></g></svg>