<svg xmlns="http://www.w3.org/2000/svg" version="1.1" xmlns:xlink="http://www.w3.org/1999/xlink" xmlns:svgjs="http://svgjs.com/svgjs" width="512" height="512" x="0" y="0" viewBox="0 0 64 64" style="enable-background:new 0 0 512 512" xml:space="preserve" class=""><g><path d="m56.701 24.409-.005-5.559a6.076 6.076 0 0 0-3.467-5.47L34.582 4.578a6.03 6.03 0 0 0-5.164 0l-18.647 8.8a6.076 6.076 0 0 0-3.467 5.471v5.36C7.067 27.085 6.96 51.975 32 60c24.915-7.892 24.947-32.964 24.701-35.591zM32 57.942C8.616 49.648 9.225 27.157 9.304 24.211v-5.36a4.067 4.067 0 0 1 2.321-3.663l18.646-8.8a4.038 4.038 0 0 1 3.457 0l18.647 8.8a4.067 4.067 0 0 1 2.321 3.662v5.36c.095 2.95.676 25.437-22.696 33.732z" fill="#ffffff" data-original="#000000" class=""></path><path d="M51.418 21.78a4.946 4.946 0 0 0-2.823-4.454l-14.493-6.84a4.904 4.904 0 0 0-4.204 0l-14.493 6.84a4.946 4.946 0 0 0-2.823 4.453v4.167l-.003.144c-.173.724-.433 21.75 19.421 27.896 21.723-7.623 19.22-27.642 19.418-32.207zM32 51.926c-17.96-6.425-17.475-23.7-17.418-25.981v-4.167a2.938 2.938 0 0 1 1.677-2.645l14.493-6.84a2.914 2.914 0 0 1 2.496 0l14.493 6.84a2.938 2.938 0 0 1 1.677 2.645v4.167c.07 2.284.533 19.554-17.418 25.981z" fill="#ffffff" data-original="#000000" class=""></path><path d="M32 16.038A14.215 14.215 0 0 0 17.826 30.21c-.155 11.077 12.727 18.03 21.856 11.895C51.389 34.453 46.164 16.162 32 16.038zm12.153 13.765-1.81.458a.82.82 0 0 1-.757-.19 2.84 2.84 0 0 0-4.445.665.818.818 0 0 1-.593.406l-1.055.158a.82.82 0 0 1-.78-.317L33.62 29.54c-.52-.747.228-1.232.769-1.623 1.272-.808 1.186-3.104 1.431-4.395a2.837 2.837 0 0 0-1.249-2.752l-1.199-.787c-.57-.305-.322-1.387-.372-1.895a12.175 12.175 0 0 1 11.153 11.715zM22.95 22.099l1.474 1.567a.795.795 0 0 1 .151.86l-.449 1.04c-.571 1.104.06 2.422.483 3.462a.8.8 0 0 1-.645 1.08 2.807 2.807 0 0 0-2.1 1.405l-1.415 2.517a12.187 12.187 0 0 1 2.501-11.931zm3.052 18.693.748-2.188a2.013 2.013 0 0 1 3.211-.852 4.014 4.014 0 0 0 2.871 1.062c.703 0 1.854-.206 2.47.238.713.482 2.066 1.036 2.426 1.896a12.22 12.22 0 0 1-11.726-.156zm13.402-.938c-.526-1.14-2.044-1.887-3.065-2.512a5.787 5.787 0 0 0-3.582-.527 2.05 2.05 0 0 1-1.48-.57 3.998 3.998 0 0 0-6.42 1.712l-.57 1.665a12.256 12.256 0 0 1-2.815-3.328l2.135-3.8a.796.796 0 0 1 .598-.401 2.811 2.811 0 0 0 2.267-3.792c-.097-.396-.77-1.523-.51-1.942l.45-1.04a2.795 2.795 0 0 0-.531-3.024l-1.483-1.576A12.105 12.105 0 0 1 31 18.089v1.206c-.057 1.588 1.28 2.425 2.476 3.148a.828.828 0 0 1 .364.803l-.357 2.546c-.017.438-.637.765-.927 1.012a2.832 2.832 0 0 0-.53 3.943l1.093 1.444c.905 1.244 2.37 1.23 3.725.929a2.833 2.833 0 0 0 2.057-1.433.81.81 0 0 1 .585-.405.867.867 0 0 1 .758.272 2.825 2.825 0 0 0 2.59.646l1.21-.306a12.16 12.16 0 0 1-4.64 7.96z" fill="#ffffff" data-original="#000000" class=""></path></g></svg>