<svg xmlns="http://www.w3.org/2000/svg" version="1.1" xmlns:xlink="http://www.w3.org/1999/xlink" xmlns:svgjs="http://svgjs.com/svgjs" width="512" height="512" x="0" y="0" viewBox="0 0 512 512" style="enable-background:new 0 0 512 512" xml:space="preserve" class=""><g><path d="M498.344 407.68 348.16 255.787l151.893-151.893C508.587 95.36 512 85.12 512 74.88c0-10.24-3.413-20.48-11.947-27.307l-35.84-35.84c-15.36-15.36-40.96-15.36-56.32 0L256 163.627 104.106 11.733c-15.36-15.36-40.96-15.36-56.32 0l-35.84 35.84C5.12 54.4 0 64.64 0 74.88s5.12 20.48 11.947 29.013L163.84 255.787 11.946 407.68c-15.36 15.36-15.36 40.96 0 56.32l35.84 35.84c15.36 15.36 40.96 15.36 56.32 0l151.893-151.893L407.891 499.84c6.827 6.827 17.067 11.947 27.307 11.947 10.24 0 20.48-3.413 27.307-11.947l35.84-35.84c6.827-6.827 11.947-17.067 11.947-29.014-.001-10.24-3.414-20.48-11.948-27.306zm-22.184 32.427-35.84 35.84c-3.413 3.413-5.12 3.413-8.534 0l-163.84-163.84c-1.706-3.413-6.827-5.12-11.946-5.12s-8.534 1.707-11.946 5.12l-163.84 163.84c-3.413 3.413-5.12 3.413-8.534 0l-35.84-35.84c-1.706-1.707-1.706-5.12 0-8.534l163.84-163.84c3.413-3.413 5.12-6.827 5.12-11.946 0-5.12-1.707-8.534-5.12-11.947L35.84 80c-1.706-1.706-1.706-3.413-1.706-5.12s0-3.413 1.706-3.413l35.84-35.84c3.413-3.413 5.12-3.413 8.534 0l163.84 163.84c6.827 6.827 17.067 6.827 23.893 0l163.84-163.84c3.413-3.413 5.12-3.413 8.534 0l35.84 35.84c1.706 1.706 1.706 3.413 1.706 3.413 0 1.706 0 3.413-1.707 3.413l-163.84 163.84c-6.827 6.827-6.827 17.067 0 23.893l163.84 163.84c1.707 1.707 1.707 3.413 1.707 3.413 0 3.414 0 5.121-1.707 6.828z" fill="#ffffff" data-original="#000000" class=""></path></g></svg>