<svg xmlns="http://www.w3.org/2000/svg" version="1.1" xmlns:xlink="http://www.w3.org/1999/xlink" xmlns:svgjs="http://svgjs.com/svgjs" width="512" height="512" x="0" y="0" viewBox="0 0 35 35" style="enable-background:new 0 0 512 512" xml:space="preserve" class=""><g><path d="M29.088 4.914a1.5 1.5 0 0 0-2.121 0L13.07 18.81l-4.89-5.301a1.5 1.5 0 0 0-1.073-.484 1.57 1.57 0 0 0-1.09.44L1.86 17.622a1.5 1.5 0 0 0-.01 2.111l10.157 10.343a1.5 1.5 0 0 0 2.13.01l19-19a1.5 1.5 0 0 0 0-2.121zm-16 21.98-8.054-8.201 2-2.002 4.89 5.3a1.5 1.5 0 0 0 2.164.044l13.94-13.94 1.929 1.93z" fill="#09ff49" data-original="#000000" class=""></path></g></svg>