<svg xmlns="http://www.w3.org/2000/svg" xmlns:xlink="http://www.w3.org/1999/xlink" xmlns:svgjs="http://svgjs.com/svgjs" version="1.1" width="512" height="512" x="0" y="0" viewBox="0 0 35 35" style="enable-background:new 0 0 512 512" xml:space="preserve" class=""><g><path d="m33.207 8.988-3.762-3.763a1 1 0 0 0-1.414 0L13.127 20.13 6.97 13.971a1.03 1.03 0 0 0-1.414 0l-3.762 3.763a1 1 0 0 0 0 1.414L12.42 29.775a.997.997 0 0 0 1.414 0l19.373-19.373a1 1 0 0 0 0-1.414zm-20.08 18.666L3.914 18.44l2.348-2.349 6.158 6.158a1.03 1.03 0 0 0 1.414 0L28.738 7.347l2.348 2.348z" fill="#40ee99" data-original="#000000"/></g></svg>